<svg width="40" height="40" viewBox="0 0 40 40" fill="none" xmlns="http://www.w3.org/2000/svg">
<path d="M40 20C40 31.0459 31.0459 40 20 40C8.95409 40 0 31.0459 0 20C0 8.9541 8.95409 0 20 0C31.0459 0 40 8.9541 40 20Z" fill="black"/>
<path d="M12.9158 14.652C14.3385 14.652 15.4919 13.4987 15.4919 12.076C15.4919 10.6533 14.3385 9.5 12.9158 9.5C11.4932 9.5 10.3398 10.6533 10.3398 12.076C10.3398 13.4987 11.4932 14.652 12.9158 14.652Z" fill="white"/>
<path d="M14.8706 16.3711H10.9618C10.8556 16.3711 10.7695 16.4572 10.7695 16.5634V29.0578C10.7695 29.164 10.8556 29.2501 10.9618 29.2501H14.8706C14.9768 29.2501 15.0629 29.164 15.0629 29.0578V16.5634C15.0629 16.4572 14.9768 16.3711 14.8706 16.3711Z" fill="white"/>
<path d="M29.6593 21.0934V28.3916C29.6593 28.8637 29.2727 29.2502 28.8006 29.2502H26.2246C25.7525 29.2502 25.3659 28.8637 25.3659 28.3916V22.3809C25.3659 21.1961 24.4046 20.2347 23.2198 20.2347C22.035 20.2347 21.0736 21.1961 21.0736 22.3809V28.3916C21.0736 28.8637 20.6871 29.2502 20.2149 29.2502H17.6389C17.1668 29.2502 16.7803 28.8637 16.7803 28.3916V17.2289C16.7803 16.7568 17.1668 16.3702 17.6389 16.3702H20.2149C20.6871 16.3702 21.0736 16.7568 21.0736 17.2289V17.7785C21.9323 16.6662 23.3537 15.9414 24.9371 15.9414C27.3068 15.9414 29.6593 17.6587 29.6593 21.0934Z" fill="white"/>
</svg>
