<svg width="38" height="38" viewBox="0 0 38 38" fill="none" xmlns="http://www.w3.org/2000/svg">
<circle cx="19" cy="19" r="19" fill="#F36B21"/>
<path d="M23.3147 17.8853L16.8765 14.2529C16.6662 14.1328 16.4279 14.0705 16.1857 14.0723C15.9436 14.0742 15.7062 14.1401 15.4978 14.2635C15.2948 14.3796 15.1261 14.5474 15.0089 14.7498C14.8917 14.9522 14.8302 15.182 14.8306 15.4159V22.6806C14.8302 22.9145 14.8917 23.1443 15.0089 23.3468C15.1261 23.5492 15.2948 23.717 15.4978 23.8331C15.7062 23.9564 15.9436 24.0223 16.1857 24.0241C16.4279 24.026 16.6662 23.9637 16.8765 23.8436L23.3147 20.2113C23.5224 20.0962 23.6954 19.9277 23.8159 19.7232C23.9365 19.5187 24 19.2856 24 19.0483C24 18.8109 23.9365 18.5779 23.8159 18.3733C23.6954 18.1688 23.5224 18.0003 23.3147 17.8853Z" fill="white"/>
</svg>
