<svg width="40" height="40" viewBox="0 0 40 40" fill="none" xmlns="http://www.w3.org/2000/svg">
<path d="M40 20C40 31.0459 31.0459 40 20 40C8.95409 40 0 31.0459 0 20C0 8.9541 8.95409 0 20 0C31.0459 0 40 8.9541 40 20Z" fill="black"/>
<g clip-path="url(#clip0_1990_63)">
<path d="M20 10C14.4775 10 10 14.4775 10 20C10 25.5225 14.4775 30 20 30C25.5232 30 30 25.5225 30 20C30 14.4775 25.5232 10 20 10ZM24.305 24.549C24.1585 24.7965 23.846 24.8975 23.5785 24.7795C23.5237 24.755 23.4742 24.724 23.4229 24.6948C22.4299 24.1048 21.36 23.7403 20.2214 23.5667C19.5227 23.46 18.8205 23.4228 18.1145 23.4502C17.2022 23.4862 16.3017 23.6115 15.4102 23.8107C15.32 23.8295 15.2274 23.848 15.1359 23.849C14.8594 23.8522 14.627 23.6562 14.5782 23.39C14.5269 23.11 14.6667 22.8462 14.9242 22.743C14.9792 22.72 15.0372 22.7064 15.0939 22.6942C15.8232 22.5297 16.5592 22.4062 17.3042 22.3435C17.7202 22.3075 18.1375 22.294 18.5542 22.2703C19.7867 22.2833 20.9932 22.4502 22.1634 22.8465C22.8097 23.063 23.4264 23.3453 24.0117 23.6945C24.0629 23.7238 24.1142 23.753 24.1607 23.789C24.3962 23.969 24.458 24.2945 24.305 24.549ZM25.4533 21.997C25.2458 22.3388 24.816 22.4445 24.458 22.2417C24.2553 22.1295 24.056 22.009 23.8493 21.904C22.9028 21.4212 21.8993 21.1087 20.8575 20.912C20.056 20.7607 19.2458 20.6857 18.386 20.6825C17.3143 20.6875 16.2178 20.82 15.1456 21.1365C14.9718 21.1885 14.7965 21.1935 14.6248 21.1225C14.3465 21.011 14.1653 20.7312 14.1748 20.4365C14.1853 20.1283 14.3733 19.8603 14.6701 19.77C14.9728 19.6763 15.2793 19.5968 15.5871 19.5292C16.3468 19.36 17.1163 19.2712 17.8933 19.242C19.5661 19.1785 21.2011 19.3942 22.7946 19.906C23.6011 20.1632 24.3731 20.5018 25.1008 20.9355C25.1368 20.9575 25.1733 20.9788 25.2093 21.0007C25.589 21.2337 25.6348 21.701 25.4533 21.997ZM25.5647 19.3448C25.1595 19.116 24.7462 18.9085 24.3147 18.736C23.4578 18.3925 22.57 18.1623 21.662 18.0018C21.0305 17.8903 20.395 17.8163 19.7545 17.7781C19.0893 17.7381 18.424 17.7333 17.757 17.7676C16.9938 17.8076 16.2365 17.8913 15.489 18.0526C15.2135 18.1118 14.941 18.1876 14.668 18.2608C14.5002 18.3056 14.336 18.3113 14.1689 18.2616C13.8044 18.1558 13.5535 17.8278 13.5424 17.4461C13.5314 17.0733 13.7609 16.7284 14.1214 16.6096C14.3847 16.5234 14.6557 16.4541 14.9272 16.3924C15.5975 16.2369 16.277 16.1409 16.9622 16.0792C17.6897 16.0124 18.4189 15.9912 19.1484 16.0117C20.9455 16.0629 22.7072 16.3267 24.4129 16.9149C25.108 17.1549 25.777 17.4527 26.4134 17.8239C26.6404 17.9567 26.7927 18.1429 26.8504 18.4002C26.8642 18.4622 26.8674 18.5265 26.8757 18.5882C26.8725 19.2667 26.1605 19.6825 25.5647 19.3448Z" fill="white"/>
</g>
<defs>
<clipPath id="clip0_1990_63">
<rect width="20" height="20" fill="white" transform="translate(10 10)"/>
</clipPath>
</defs>
</svg>
