<svg width="24" height="24" viewBox="0 0 24 24" fill="none" xmlns="http://www.w3.org/2000/svg">
<g clip-path="url(#clip0_1337_3597)">
<path d="M16.2756 14.1218L12.9294 11.6121V6.49984C12.9294 5.98581 12.5139 5.57031 11.9998 5.57031C11.4858 5.57031 11.0703 5.98581 11.0703 6.49984V12.0769C11.0703 12.3697 11.2079 12.6458 11.4421 12.8206L15.1602 15.6091C15.3275 15.7346 15.5227 15.795 15.7169 15.795C16.0004 15.795 16.2793 15.6677 16.4615 15.4223C16.7702 15.0123 16.6865 14.4295 16.2756 14.1218Z" fill="white"/>
<path d="M12 0C5.3828 0 0 5.3828 0 12C0 18.6172 5.3828 24 12 24C18.6172 24 24 18.6172 24 12C24 5.3828 18.6172 0 12 0ZM12 22.141C6.40898 22.141 1.85902 17.591 1.85902 12C1.85902 6.40898 6.40898 1.85902 12 1.85902C17.592 1.85902 22.141 6.40898 22.141 12C22.141 17.591 17.591 22.141 12 22.141Z" fill="white"/>
</g>
<defs>
<clipPath id="clip0_1337_3597">
<rect width="24" height="24" fill="white"/>
</clipPath>
</defs>
</svg>
