<svg width="40" height="28" viewBox="0 0 40 28" fill="none" xmlns="http://www.w3.org/2000/svg">
<g clip-path="url(#clip0_1337_3728)">
<path d="M38.3149 1.27474C37.5669 0.489188 36.5124 0 35.3436 0H4.11165C2.94287 0 1.88918 0.489188 1.14038 1.27474C0.433435 2.01602 0 3.02141 0 4.12809V23.8712C0 24.9778 0.433435 25.9825 1.14113 26.7245C1.88918 27.5108 2.94287 28 4.11165 28H35.3436C36.5124 28 37.5661 27.5108 38.3149 26.7253C39.0219 25.984 39.4553 24.9786 39.4553 23.8719V4.12809C39.4553 3.02141 39.0226 2.01677 38.3149 1.27474Z" fill="#EFEFEF"/>
<path d="M38.3149 1.27474L23.8427 13.9996L21.405 16.1432C20.4447 16.9873 19.0106 16.9873 18.0511 16.1432L15.6134 13.9996L1.14038 1.27474C1.88918 0.489188 2.94287 0 4.11165 0H35.3436C36.5124 0 37.5669 0.489188 38.3149 1.27474Z" fill="white"/>
<path d="M38.3144 26.7256C37.5656 27.5112 36.5119 28.0004 35.3431 28.0004H4.11115C2.94237 28.0004 1.88867 27.5112 1.14062 26.7249L15.6121 14L18.0498 16.1436C19.0101 16.9876 20.4442 16.9876 21.4037 16.1436L23.8414 14L38.3137 26.7256H38.3144Z" fill="#DCDEE2"/>
</g>
<defs>
<clipPath id="clip0_1337_3728">
<rect width="39.4545" height="28" fill="white"/>
</clipPath>
</defs>
</svg>
