<svg width="36" height="36" viewBox="0 0 36 36" fill="none" xmlns="http://www.w3.org/2000/svg">
<path d="M18 0C27.9411 0 36 8.05887 36 18C36 27.9411 27.9411 36 18 36C8.05887 36 0 27.9411 0 18C0 8.05887 8.05887 0 18 0ZM17.9932 24.9795C17.2066 24.9557 16.5864 25.5753 16.5625 26.3857V27.959C16.5863 28.7694 17.2304 29.3896 17.9932 29.3896C18.7557 29.3894 19.3756 28.7689 19.3994 27.9824V26.3857C19.3994 25.5993 18.7557 24.9797 17.9932 24.9795ZM22.8555 16.9707C22.1882 17.0423 21.6398 17.6376 21.6396 18.3525V20.9033C21.6396 21.7137 21.64 22.5242 21.6162 23.3584C21.6162 23.5014 21.6402 23.6451 21.6641 23.7881C21.8311 24.5029 22.4747 24.9318 23.2373 24.8604C23.9284 24.7887 24.4766 24.1925 24.4766 23.4775V18.3525C24.4765 18.2572 24.4525 18.1382 24.4287 18.043C24.2619 17.3279 23.6182 16.8754 22.8555 16.9707ZM12.9395 20.4746C12.153 20.4746 11.5328 21.07 11.5088 21.8564V23.4775C11.5326 24.2642 12.1528 24.8604 12.9395 24.8604C13.702 24.8363 14.3218 24.2405 14.3457 23.4541V22.6191C14.3457 22.3571 14.3695 22.0947 14.3457 21.8564C14.3217 21.0702 13.7019 20.4748 12.9395 20.4746ZM17.8262 12.417C17.0634 12.5123 16.5625 13.061 16.5625 13.8477V17.9717C16.5625 18.2338 16.5629 18.4722 16.5391 18.7344C16.5391 19.8785 16.5152 21.0464 16.5391 22.1904C16.5629 23.0486 17.3493 23.6918 18.1836 23.5488C18.8986 23.4296 19.375 22.8575 19.375 22.0947V13.6572C19.3273 12.9184 18.565 12.3218 17.8262 12.417ZM8.07715 15.8027C7.26672 15.7551 6.62287 16.3507 6.5752 17.1611C6.55137 17.7093 6.55136 18.2575 6.5752 18.8057C6.59903 19.5684 7.17161 20.1408 7.88672 20.1885C8.67321 20.2122 9.31674 19.7115 9.41211 18.9727C9.45977 18.639 9.41213 18.3053 9.41211 17.9717C9.43595 17.7095 9.43555 17.4704 9.43555 17.2559C9.43531 16.4695 8.83977 15.8266 8.07715 15.8027ZM27.9326 15.7549C27.1698 15.7787 26.5498 16.3985 26.5498 17.209V18.71C26.5736 19.4966 27.1698 20.1168 27.9326 20.1406C28.7429 20.1643 29.3863 19.5682 29.4102 18.7578C29.434 18.2335 29.434 17.6854 29.4102 17.1611C29.3863 16.3508 28.7429 15.7312 27.9326 15.7549ZM13.4404 11.2256C12.5108 10.8204 11.4854 11.5121 11.4854 12.5371V17.5898C11.4854 17.709 11.5094 17.8046 11.5332 17.9238C11.7001 18.6389 12.3675 19.0676 13.1064 18.9961C13.7976 18.9246 14.3455 18.3292 14.3457 17.6143V15.0635C14.3457 14.2054 14.3699 13.347 14.3223 12.5127C14.3222 11.8931 13.9885 11.464 13.4404 11.2256ZM23.0459 11.1064C22.2832 11.1304 21.6635 11.7027 21.6396 12.4893C21.6158 13.0374 21.6158 13.5856 21.6396 14.1338C21.6635 14.9203 22.2833 15.5165 23.0459 15.5166C23.8325 15.5166 24.4527 14.9204 24.4766 14.1338V12.4648C24.4526 11.7022 23.8324 11.1064 23.0459 11.1064ZM18.0166 6.55371C17.2538 6.55371 16.6098 7.17335 16.5859 7.95996V9.58105C16.6099 10.3438 17.2539 10.9639 18.0166 10.9639C18.7792 10.9636 19.399 10.3431 19.4229 9.55664V7.93652C19.399 7.1739 18.7792 6.55396 18.0166 6.55371Z" fill="white"/>
</svg>
