<svg width="25" height="25" viewBox="0 0 25 25" fill="none" xmlns="http://www.w3.org/2000/svg">
<circle cx="12.5" cy="12.5" r="12.5" fill="black"/>
<path d="M17.196 4.5918H12.291V6.43581H17.196V4.5918Z" fill="white"/>
<path d="M17.1804 15.8763C16.9903 18.4061 14.871 20.4082 12.2915 20.4082C9.71198 20.4082 7.59438 18.4061 7.4043 15.8763H9.25364C9.4384 17.3882 10.7299 18.5642 12.2915 18.5642C13.853 18.5642 15.1445 17.3882 15.3293 15.8763H17.1804Z" fill="white"/>
<path d="M17.3538 15.734V15.7691H17.3521C17.3538 15.7568 17.3538 15.7463 17.3538 15.734Z" fill="white"/>
<path d="M17.1851 9.18229C17.0235 6.62234 14.8917 4.5918 12.2909 4.5918C9.69005 4.5918 7.56002 6.62234 7.40013 9.18229C7.39125 9.28533 7.3877 9.39014 7.3877 9.49673C7.3877 10.6284 7.7732 11.6694 8.41985 12.5008C8.44649 12.5363 8.47492 12.5719 8.50334 12.6074C8.53177 12.6429 8.56019 12.6767 8.59217 12.7104C8.87996 13.0426 9.21039 13.334 9.57813 13.5791C9.61544 13.604 9.65274 13.6289 9.69183 13.652C9.72913 13.6769 9.76644 13.7 9.80552 13.7213C10.5339 14.153 11.3848 14.3999 12.2909 14.3999C13.1969 14.3999 14.0496 14.153 14.778 13.7213C14.8153 13.7 14.8526 13.6769 14.8899 13.652C14.929 13.6307 14.9663 13.6058 15.0036 13.5791C15.3713 13.3358 15.7035 13.0426 15.9913 12.7104C16.0233 12.6767 16.0517 12.6429 16.0801 12.6074C16.1103 12.5719 16.1388 12.5363 16.1636 12.5008C16.8121 11.6694 17.1958 10.6284 17.1958 9.49673C17.1958 9.39014 17.1922 9.28533 17.1851 9.18229ZM14.778 11.2786C14.7513 11.3159 14.7247 11.3514 14.6962 11.3869C14.6696 11.4225 14.6412 11.4562 14.611 11.49C14.2823 11.8737 13.8577 12.1757 13.3763 12.3587C13.3052 12.3853 13.2342 12.4102 13.1613 12.4315C13.0707 12.4582 12.9766 12.4813 12.8824 12.5008C12.6906 12.5381 12.4934 12.5577 12.2909 12.5577C12.0883 12.5577 11.8911 12.5381 11.6993 12.5008C11.6051 12.4813 11.511 12.4582 11.4204 12.4315C11.3475 12.4102 11.2765 12.3853 11.2054 12.3587C10.724 12.1757 10.2994 11.8737 9.97074 11.49C9.94054 11.4562 9.91211 11.4225 9.88546 11.3869C9.85704 11.3514 9.83039 11.3159 9.80375 11.2786C9.44312 10.7776 9.22993 10.1611 9.22993 9.49673C9.22993 9.39014 9.23526 9.28533 9.24592 9.18229C9.40403 7.64206 10.7098 6.43581 12.2909 6.43581C13.8719 6.43581 15.1777 7.64206 15.3358 9.18229C15.3464 9.28533 15.3518 9.39014 15.3518 9.49673C15.3518 10.1611 15.1386 10.7776 14.778 11.2786Z" fill="#F16A21"/>
<path d="M17.3538 15.734V15.7691H17.3521C17.3538 15.7568 17.3538 15.7463 17.3538 15.734Z" fill="#BA6A47"/>
</svg>
