<svg width="150" height="37" viewBox="0 0 150 37" fill="none" xmlns="http://www.w3.org/2000/svg">
<g clip-path="url(#clip0_1337_3811)">
<path d="M56.9385 7.33203L56.2693 8.21458C56.4686 7.90306 56.6924 7.60794 56.9385 7.33203Z" fill="#0788BE"/>
<path d="M68.9181 18.7042C68.5385 18.3269 68.0438 18.088 67.513 18.0253C66.9822 17.9626 66.4457 18.0799 65.9891 18.3584C64.5922 19.1848 62.9582 19.5146 61.3512 19.2945C59.7442 19.0745 58.2582 18.3173 57.1336 17.1456C56.009 15.9739 55.3114 14.4561 55.1538 12.8377C54.9962 11.2193 55.3877 9.59484 56.265 8.22713L50.7981 15.4836C51.3133 17.2525 52.2255 18.8796 53.4649 20.2403C54.7043 21.601 56.2379 22.6591 57.9482 23.3337C59.6586 24.0083 61.5003 24.2813 63.3321 24.1319C65.164 23.9825 66.9375 23.4146 68.5166 22.4718C68.8255 22.2846 69.0877 22.0293 69.2833 21.7252C69.4789 21.4211 69.6028 21.0763 69.6455 20.717C69.6881 20.3577 69.6485 19.9934 69.5296 19.6517C69.4107 19.3101 69.2157 19.0001 68.9593 18.7455L68.9181 18.7042ZM52.3167 5.45045L53.1764 4.30469C52.8694 4.67082 52.5825 5.0533 52.3167 5.45045Z" fill="#F36B21"/>
<path d="M68.9797 5.48544L68.9385 5.52157C68.5589 5.8988 68.0643 6.13779 67.5334 6.20046C67.0026 6.26313 66.4661 6.14587 66.0095 5.86736C64.5657 5.02092 62.8733 4.70428 61.2222 4.97169C59.5712 5.23911 58.0643 6.07395 56.9598 7.33312C56.7136 7.61081 56.4899 7.90765 56.2906 8.22083L50.7979 15.4825L46.932 20.6436C45.8165 21.7649 44.4909 22.6541 43.0315 23.2599C41.572 23.8658 40.0075 24.1763 38.4279 24.1738H38.2478C36.4032 24.146 34.5897 23.6932 32.9475 22.8505C31.3053 22.0078 29.8784 20.7978 28.7771 19.3139C27.6759 17.83 26.9297 16.1121 26.5964 14.2929C26.2631 12.4738 26.3516 10.6021 26.8549 8.8227C27.3583 7.04329 28.263 5.40377 29.4993 4.03092C30.7355 2.65807 32.2701 1.58865 33.9844 0.90537C35.6987 0.222087 37.5468 -0.0567635 39.3857 0.0903796C41.2247 0.237523 43.0053 0.806717 44.5898 1.75395C44.8991 1.94125 45.1618 2.19675 45.3579 2.50106C45.554 2.80536 45.6783 3.15047 45.7215 3.51017C45.7647 3.86987 45.7255 4.23471 45.607 4.57697C45.4885 4.91923 45.2938 5.22992 45.0376 5.48544L44.9964 5.52157C44.6168 5.8988 44.1222 6.13779 43.5913 6.20046C43.0605 6.26313 42.524 6.14587 42.0674 5.86736C40.9144 5.19278 39.5972 4.85251 38.2627 4.8845C36.9282 4.91649 35.6287 5.31948 34.5092 6.04853C33.3897 6.77759 32.4942 7.80406 31.9225 9.01349C31.3508 10.2229 31.1254 11.5678 31.2714 12.8982C31.4173 14.2285 31.929 15.4921 32.7493 16.548C33.5696 17.6039 34.6663 18.4106 35.9171 18.8782C37.1679 19.3458 38.5236 19.4559 39.8332 19.1963C41.1427 18.9366 42.3546 18.3174 43.3337 17.4076L43.4315 17.2734L52.3165 5.44931L53.1762 4.30354C54.3054 2.9692 55.7109 1.89754 57.2951 1.1631C58.8793 0.428663 60.6041 0.0490893 62.3494 0.0507869H62.4061C64.5586 0.0572868 66.6695 0.645668 68.5164 1.75395C68.8261 1.9406 69.0893 2.19538 69.2863 2.49903C69.4833 2.80268 69.6088 3.14725 69.6535 3.5067C69.6981 3.86615 69.6606 4.23107 69.5439 4.57387C69.4272 4.91667 69.2343 5.22838 68.9797 5.48544Z" fill="white"/>
<path d="M12.1486 0.0586037C9.76991 0.0616652 7.4455 0.771662 5.46917 2.09886C3.49284 3.42605 1.95329 5.31087 1.04512 7.51509C0.136943 9.71932 -0.0990942 12.144 0.366838 14.4827C0.832771 16.8214 1.97976 18.9691 3.66283 20.6544C5.34591 22.3396 7.48952 23.4869 9.82274 23.951C12.156 24.4151 14.574 24.1754 16.7714 23.262C18.9687 22.3487 20.8467 20.8027 22.1679 18.8195C23.4891 16.8364 24.1943 14.505 24.1943 12.1201C24.1943 10.5349 23.8826 8.96518 23.2771 7.5008C22.6715 6.03642 21.784 4.70608 20.6653 3.58586C19.5465 2.46564 18.2185 1.57752 16.7571 0.972284C15.2958 0.367047 13.7297 0.0565687 12.1486 0.0586037ZM12.1486 19.3457C10.7232 19.3457 9.32986 18.9219 8.14471 18.1279C6.95955 17.334 6.03583 16.2055 5.49037 14.8852C4.9449 13.5649 4.80218 12.1121 5.08026 10.7105C5.35833 9.30886 6.04472 8.02139 7.05261 7.01088C8.0605 6.00037 9.34464 5.3122 10.7426 5.0334C12.1406 4.7546 13.5897 4.89769 14.9065 5.44458C16.2234 5.99146 17.349 6.91758 18.1409 8.10582C18.9328 9.29405 19.3554 10.691 19.3554 12.1201C19.3554 14.0365 18.5961 15.8743 17.2446 17.2294C15.8931 18.5844 14.06 19.3457 12.1486 19.3457Z" fill="white"/>
<path d="M83.6252 0.0585938C81.7219 0.0687006 79.8481 0.531455 78.1578 1.40883C76.4676 2.28621 75.0091 3.55317 73.9022 5.10561C72.7953 6.65805 72.0716 8.45166 71.7905 10.3391C71.5095 12.2264 71.6792 14.1538 72.2856 15.9626C72.892 17.7715 73.9178 19.4103 75.2788 20.7444C76.6398 22.0785 78.2971 23.0697 80.1145 23.6367C81.9319 24.2037 83.8576 24.3303 85.7332 24.006C87.6089 23.6818 89.3811 22.9159 90.9042 21.7714C90.9035 22.0847 90.9645 22.3951 91.0838 22.6847C91.2031 22.9743 91.3782 23.2374 91.5992 23.4589C91.8202 23.6805 92.0826 23.8561 92.3715 23.9757C92.6603 24.0953 92.9699 24.1565 93.2824 24.1558H93.3442C93.6587 24.1592 93.9707 24.1001 94.2622 23.9818C94.5537 23.8635 94.8189 23.6884 95.0425 23.4666C95.2661 23.2449 95.4436 22.9808 95.5647 22.6899C95.6858 22.3989 95.7482 22.0867 95.7482 21.7714V12.3162C95.757 10.7127 95.4502 9.12327 94.8453 7.63885C94.2405 6.15443 93.3495 4.80423 92.2234 3.66559C91.0972 2.52695 89.7581 1.62225 88.2827 1.0033C86.8073 0.384354 85.2246 0.0633216 83.6252 0.0585938ZM83.6973 19.3457C82.2719 19.3457 80.8786 18.9219 79.6934 18.1279C78.5083 17.334 77.5845 16.2055 77.0391 14.8852C76.4936 13.5649 76.3509 12.1121 76.629 10.7105C76.907 9.30885 77.5934 8.02138 78.6013 7.01087C79.6092 6.00036 80.8933 5.31219 82.2913 5.03339C83.6893 4.75459 85.1384 4.89768 86.4553 5.44456C87.7721 5.99145 88.8977 6.91757 89.6896 8.1058C90.4815 9.29404 90.9042 10.691 90.9042 12.1201C90.9042 14.0364 90.1449 15.8743 88.7933 17.2293C87.4418 18.5844 85.6087 19.3457 83.6973 19.3457Z" fill="white"/>
<path d="M128.437 8.56927V21.7456C128.437 22.3848 128.183 22.9979 127.733 23.4499C127.282 23.9019 126.67 24.1558 126.033 24.1558C125.395 24.1558 124.784 23.9019 124.333 23.4499C123.882 22.9979 123.629 22.3848 123.629 21.7456V8.51249C123.629 7.55433 123.249 6.6354 122.573 5.95787C121.897 5.28035 120.981 4.89972 120.025 4.89972C119.1 4.91728 118.218 5.29787 117.57 5.95981C116.921 6.62175 116.557 7.51227 116.556 8.44024V21.7456C116.556 22.3848 116.302 22.9979 115.852 23.4499C115.401 23.9019 114.789 24.1558 114.152 24.1558C113.514 24.1558 112.903 23.9019 112.452 23.4499C112.001 22.9979 111.748 22.3848 111.748 21.7456V8.51249C111.748 7.55433 111.368 6.6354 110.692 5.95787C110.016 5.28035 109.1 4.89972 108.144 4.89972C107.219 4.91729 106.338 5.29806 105.69 5.96014C105.043 6.62222 104.68 7.51274 104.68 8.44024V21.7456C104.68 22.3848 104.427 22.9979 103.976 23.4499C103.525 23.9019 102.913 24.1558 102.276 24.1558C101.96 24.1565 101.647 24.0947 101.354 23.9738C101.062 23.853 100.796 23.6756 100.573 23.4517C100.349 23.2278 100.171 22.9619 100.05 22.6691C99.9291 22.3764 99.8667 22.0625 99.8667 21.7456V8.56927C99.864 6.31751 100.752 4.15666 102.337 2.56105C103.922 0.965431 106.073 0.065428 108.319 0.0585938C110.518 0.0808567 112.617 0.9775 114.157 2.55141C115.701 0.978318 117.803 0.0820778 120.005 0.0585938C122.247 0.0708773 124.393 0.973283 125.973 2.56831C127.554 4.16334 128.439 6.32107 128.437 8.56927Z" fill="white"/>
<path d="M142.258 9.8537C137.811 8.82148 137.322 8.09377 137.322 6.8551V6.79317C137.322 5.54418 138.598 4.67195 140.41 4.67195C141.575 4.68327 142.722 4.95108 143.772 5.45644C143.967 5.54418 144.626 5.94674 145.316 6.37512C145.855 6.71185 146.504 6.82317 147.124 6.68516C147.744 6.54716 148.285 6.17084 148.631 5.63708C148.807 5.36598 148.928 5.06237 148.985 4.74404C149.043 4.42572 149.036 4.09908 148.966 3.78328C148.896 3.46747 148.764 3.16885 148.578 2.90492C148.391 2.64098 148.154 2.41705 147.88 2.24623C147.19 1.81785 146.552 1.42561 146.335 1.33271C144.506 0.453961 142.5 0.00894664 140.472 0.03211C135.613 0.03211 132.236 2.9533 132.236 7.13896V7.2267C132.236 11.7169 135.139 13.2962 140.168 14.5142C144.137 15.4329 144.801 16.1503 144.801 17.4147V17.4818C144.801 18.8392 143.422 19.7579 141.368 19.7579C140.191 19.6676 139.04 19.3651 137.97 18.865C137.005 18.4223 136.065 17.9261 135.155 17.3786C134.617 17.0581 133.977 16.9581 133.368 17.0995C132.759 17.2409 132.228 17.6127 131.886 18.1373V18.1683C131.712 18.4369 131.593 18.7374 131.536 19.0524C131.479 19.3674 131.484 19.6906 131.552 20.0034C131.62 20.3162 131.749 20.6125 131.932 20.875C132.115 21.1376 132.347 21.3613 132.617 21.5333C133.461 22.0494 134.305 22.6068 134.588 22.7513C136.654 23.8326 138.95 24.3974 141.28 24.3977C146.505 24.3977 149.882 21.5281 149.882 17.0947V17.0328C149.877 13.2497 147.669 11.1749 142.258 9.8537Z" fill="white"/>
<path d="M71.6672 28.902C71.6672 28.8172 71.7009 28.7358 71.7607 28.6758C71.8206 28.6157 71.9017 28.582 71.9864 28.582C72.071 28.582 72.1522 28.6157 72.2121 28.6758C72.2719 28.7358 72.3056 28.8172 72.3056 28.902C72.3056 28.9869 72.2719 29.0683 72.2121 29.1283C72.1522 29.1883 72.071 29.222 71.9864 29.222C71.9017 29.222 71.8206 29.1883 71.7607 29.1283C71.7009 29.0683 71.6672 28.9869 71.6672 28.902ZM71.7908 30.2491H72.1717V34.8218H71.7908V30.2491Z" fill="#828383"/>
<path d="M77.0827 32.141C77.0827 31.0314 76.4701 30.4585 75.5383 30.4585C74.6066 30.4585 73.9168 31.0572 73.9168 32.3268V34.7938H73.541V30.2211H73.9168V31.1914C74.0509 30.8597 74.2856 30.5787 74.5876 30.3879C74.8896 30.1971 75.2438 30.1063 75.6001 30.1282C76.6297 30.1282 77.4378 30.7475 77.4378 32.1152V34.7938H77.0672L77.0827 32.141Z" fill="#828383"/>
<path d="M80.7622 30.1668C81.249 30.1158 81.7371 30.2505 82.1292 30.5442C82.5213 30.8378 82.7887 31.2688 82.878 31.7513H82.4816C82.4024 31.3693 82.1863 31.0297 81.8742 30.7967C81.5621 30.5637 81.1757 30.4534 80.788 30.4868C79.8099 30.4868 78.9657 31.1371 78.9657 32.5048C78.9657 33.8725 79.8099 34.5383 80.788 34.5383C81.1759 34.5729 81.5629 34.4631 81.8753 34.2299C82.1876 33.9967 82.4034 33.6564 82.4816 33.2738H82.878C82.7858 33.7502 82.5216 34.1758 82.136 34.4691C81.7504 34.7624 81.2704 34.9028 80.788 34.8635C79.501 34.8635 78.5796 33.9706 78.5796 32.5048C78.5796 31.0391 79.4753 30.1668 80.7622 30.1668Z" fill="#828383"/>
<path d="M85.9669 34.8645C84.6903 34.8645 83.7534 33.9716 83.7534 32.5059C83.7534 31.0401 84.6749 30.1679 85.9669 30.1679C86.2427 30.1508 86.5191 30.191 86.7786 30.2862C87.0381 30.3814 87.2752 30.5293 87.4749 30.7208C87.6746 30.9123 87.8326 31.1432 87.9389 31.3989C88.0453 31.6545 88.0978 31.9295 88.093 32.2065C88.1015 32.3578 88.1015 32.5095 88.093 32.6607H84.1549C84.1406 32.9059 84.1772 33.1514 84.2624 33.3817C84.3476 33.612 84.4795 33.8221 84.6498 33.9987C84.8201 34.1753 85.0251 34.3145 85.2518 34.4076C85.4785 34.5006 85.722 34.5455 85.9669 34.5394C86.3519 34.5751 86.7366 34.4691 87.0493 34.2411C87.3619 34.0132 87.581 33.6789 87.6657 33.3007H88.0569C87.9593 33.7723 87.6927 34.1918 87.3077 34.4799C86.9226 34.768 86.4457 34.9048 85.9669 34.8645ZM84.1395 32.3459H87.712C87.7412 32.1037 87.7169 31.8581 87.6408 31.6264C87.5646 31.3947 87.4386 31.1827 87.2715 31.0054C87.1045 30.828 86.9005 30.6897 86.6742 30.6003C86.4478 30.5109 86.2046 30.4725 85.9618 30.4879C85.7187 30.4811 85.4769 30.5249 85.2515 30.6165C85.0262 30.7081 84.8222 30.8455 84.6525 31.0201C84.4827 31.1947 84.3509 31.4026 84.2652 31.6308C84.1796 31.8589 84.142 32.1024 84.1549 32.3459H84.1395Z" fill="#828383"/>
<path d="M91.5577 30.1669C91.8615 30.1575 92.1639 30.213 92.4448 30.3297C92.7256 30.4463 92.9786 30.6214 93.1869 30.8434C93.3952 31.0654 93.554 31.3293 93.653 31.6175C93.752 31.9057 93.7887 32.2117 93.7609 32.5152C93.7609 33.9551 92.8343 34.8738 91.5577 34.8738C91.1442 34.8928 90.7353 34.7809 90.3889 34.554C90.0424 34.3271 89.7759 33.9966 89.6272 33.6093V36.964H89.2515V30.2546H89.6272V31.4313C89.7732 31.0423 90.0391 30.7099 90.3862 30.4826C90.7333 30.2552 91.1436 30.1446 91.5577 30.1669ZM91.501 30.4972C90.9855 30.5233 90.4997 30.7471 90.144 31.1222C89.7883 31.4973 89.59 31.995 89.59 32.5126C89.59 33.0301 89.7883 33.5279 90.144 33.903C90.4997 34.2781 90.9855 34.5018 91.501 34.528C92.6078 34.528 93.3748 33.7693 93.3748 32.5048C93.3748 31.2404 92.6078 30.4972 91.501 30.4972Z" fill="#828383"/>
<path d="M95.0897 30.5541H94.3999V30.2237H95.0897V29.0625H95.4655V30.2237H96.8193V30.5541H95.4655V33.5785C95.4655 34.2649 95.692 34.461 96.3046 34.461H96.8193V34.7965H96.2634C95.4809 34.7965 95.1051 34.4765 95.1051 33.5785L95.0897 30.5541Z" fill="#828383"/>
<path d="M97.6887 28.9035C97.683 28.8584 97.6869 28.8126 97.7002 28.7692C97.7135 28.7257 97.7358 28.6856 97.7658 28.6515C97.7957 28.6174 97.8326 28.5901 97.8739 28.5714C97.9152 28.5526 97.96 28.543 98.0053 28.543C98.0507 28.543 98.0955 28.5526 98.1368 28.5714C98.1781 28.5901 98.2149 28.6174 98.2449 28.6515C98.2748 28.6856 98.2972 28.7257 98.3105 28.7692C98.3238 28.8126 98.3277 28.8584 98.3219 28.9035C98.3219 28.9884 98.2883 29.0698 98.2284 29.1298C98.1686 29.1898 98.0874 29.2235 98.0028 29.2235C97.9181 29.2235 97.8369 29.1898 97.7771 29.1298C97.7172 29.0698 97.6836 28.9884 97.6836 28.9035H97.6887ZM97.8174 30.2506H98.1932V34.8233H97.8071L97.8174 30.2506Z" fill="#828383"/>
<path d="M101.585 34.8638C101.28 34.8726 100.977 34.817 100.694 34.7007C100.412 34.5843 100.157 34.4098 99.9466 34.1883C99.7359 33.9669 99.574 33.7036 99.4714 33.4154C99.3688 33.1272 99.3278 32.8206 99.351 32.5154C99.3712 32.0739 99.5204 31.648 99.7799 31.2907C100.04 30.9335 100.398 30.6605 100.811 30.5059C101.224 30.3512 101.673 30.3216 102.103 30.4208C102.533 30.52 102.924 30.7435 103.228 31.0637C103.532 31.3838 103.735 31.7865 103.813 32.2216C103.89 32.6567 103.839 33.1051 103.664 33.5111C103.49 33.917 103.2 34.2626 102.831 34.505C102.463 34.7473 102.031 34.8756 101.59 34.8741L101.585 34.8638ZM101.585 34.5283C101.845 34.536 102.104 34.4882 102.345 34.3881C102.585 34.2879 102.801 34.1377 102.979 33.9474C103.158 33.7571 103.293 33.5311 103.378 33.2842C103.462 33.0373 103.493 32.7753 103.469 32.5154C103.483 32.2615 103.444 32.0075 103.356 31.7689C103.269 31.5303 103.133 31.3121 102.959 31.1276C102.784 30.9431 102.574 30.7962 102.341 30.6958C102.108 30.5954 101.857 30.5437 101.603 30.5437C101.35 30.5437 101.099 30.5954 100.865 30.6958C100.632 30.7962 100.422 30.9431 100.248 31.1276C100.073 31.3121 99.9377 31.5303 99.85 31.7689C99.7622 32.0075 99.7238 32.2615 99.7371 32.5154C99.732 33.8986 100.628 34.5283 101.585 34.5283Z" fill="#828383"/>
<path d="M108.519 32.1412C108.519 31.0315 107.907 30.4586 106.975 30.4586C106.043 30.4586 105.353 31.0573 105.353 32.327V34.794H105.014V30.2212H105.395V31.1915C105.527 30.8598 105.761 30.5785 106.062 30.3876C106.363 30.1967 106.717 30.106 107.073 30.1283C108.102 30.1283 108.911 30.7477 108.911 32.1154V34.794H108.54L108.519 32.1412Z" fill="#828383"/>
<path d="M112.782 30.5541H112.093V30.2237H112.782V29.0625H113.158V30.2237H114.512V30.5541H113.158V33.5785C113.158 34.2649 113.385 34.461 113.997 34.461H114.512V34.7965H113.941C113.158 34.7965 112.782 34.4765 112.782 33.5785V30.5541Z" fill="#828383"/>
<path d="M117.518 34.8628C116.897 34.8628 116.301 34.6153 115.862 34.1749C115.422 33.7346 115.176 33.1373 115.176 32.5144C115.176 31.8916 115.422 31.2943 115.862 30.8539C116.301 30.4136 116.897 30.1661 117.518 30.1661C117.825 30.1527 118.132 30.2049 118.417 30.3193C118.703 30.4338 118.961 30.6079 119.174 30.83C119.387 31.0521 119.551 31.3172 119.654 31.6076C119.757 31.898 119.798 32.2072 119.772 32.5144C119.793 32.8208 119.75 33.1282 119.646 33.4167C119.541 33.7053 119.377 33.9687 119.165 34.1899C118.952 34.4112 118.696 34.5853 118.412 34.7012C118.129 34.8171 117.824 34.8721 117.518 34.8628ZM117.518 34.5273C117.778 34.5342 118.036 34.4859 118.276 34.3854C118.515 34.285 118.731 34.1347 118.909 33.9444C119.086 33.7542 119.222 33.5284 119.306 33.2819C119.39 33.0354 119.421 32.7738 119.397 32.5144C119.416 32.2567 119.382 31.9978 119.296 31.7539C119.211 31.51 119.077 31.2864 118.901 31.097C118.726 30.9076 118.513 30.7566 118.277 30.6533C118.041 30.55 117.786 30.4966 117.528 30.4966C117.27 30.4966 117.015 30.55 116.779 30.6533C116.543 30.7566 116.33 30.9076 116.155 31.097C115.98 31.2864 115.845 31.51 115.76 31.7539C115.674 31.9978 115.64 32.2567 115.659 32.5144C115.659 33.8976 116.56 34.5273 117.518 34.5273Z" fill="#828383"/>
<path d="M123.057 28.9028C123.057 28.8008 123.087 28.701 123.144 28.6161C123.2 28.5312 123.281 28.4651 123.375 28.426C123.469 28.3869 123.572 28.3767 123.672 28.3966C123.772 28.4165 123.864 28.4657 123.936 28.5379C124.008 28.6101 124.057 28.702 124.077 28.8021C124.097 28.9023 124.086 29.006 124.047 29.1003C124.009 29.1946 123.943 29.2752 123.858 29.332C123.773 29.3887 123.674 29.4189 123.572 29.4189C123.435 29.4189 123.304 29.3646 123.208 29.2678C123.111 29.171 123.057 29.0397 123.057 28.9028ZM123.186 30.1725H123.948V34.7865H123.186V30.1725Z" fill="#828383"/>
<path d="M128.616 32.186C128.616 31.2467 128.101 30.7667 127.329 30.7667C126.557 30.7667 126.011 31.2518 126.011 32.2479V34.7975H125.25V30.1835H126.011V30.8441C126.175 30.6051 126.396 30.4115 126.655 30.2815C126.913 30.1516 127.2 30.0894 127.489 30.1009C127.748 30.0852 128.007 30.1263 128.249 30.2214C128.491 30.3164 128.709 30.4631 128.888 30.6513C129.067 30.8394 129.204 31.0645 129.287 31.3108C129.371 31.5572 129.4 31.8188 129.373 32.0776V34.7975H128.616V32.186Z" fill="#828383"/>
<path d="M130.752 30.8187H130.16V30.1839H130.752V29.8587C130.752 28.8265 131.266 28.3672 132.43 28.3672V29.0072C131.74 29.0072 131.514 29.2601 131.514 29.8587V30.1839H134.123V34.7979H133.377V30.8187H131.529V34.7979H130.752V30.8187ZM133.248 28.9039C133.248 28.8019 133.279 28.7021 133.335 28.6172C133.392 28.5323 133.472 28.4662 133.566 28.4271C133.66 28.3881 133.764 28.3778 133.864 28.3977C133.963 28.4177 134.055 28.4668 134.127 28.539C134.199 28.6112 134.248 28.7031 134.268 28.8033C134.288 28.9034 134.278 29.0071 134.239 29.1015C134.2 29.1958 134.134 29.2764 134.049 29.3331C133.964 29.3898 133.865 29.4201 133.763 29.4201C133.627 29.4201 133.496 29.3657 133.399 29.2689C133.303 29.1721 133.248 29.0408 133.248 28.9039Z" fill="#828383"/>
<path d="M138.783 32.1861C138.783 31.2467 138.269 30.7667 137.502 30.7667C136.735 30.7667 136.184 31.2519 136.184 32.248V34.7976H135.417V30.1835H136.184V30.8442C136.346 30.6041 136.567 30.4097 136.826 30.2796C137.085 30.1495 137.372 30.088 137.661 30.101C137.92 30.0851 138.179 30.1262 138.421 30.2213C138.662 30.3164 138.88 30.4632 139.059 30.6514C139.238 30.8397 139.374 31.0649 139.457 31.3112C139.54 31.5576 139.568 31.8192 139.54 32.0777V34.7976H138.783V32.1861Z" fill="#828383"/>
<path d="M140.667 28.9028C140.667 28.8008 140.697 28.701 140.753 28.6161C140.81 28.5312 140.89 28.4651 140.985 28.426C141.079 28.3869 141.182 28.3767 141.282 28.3966C141.382 28.4165 141.474 28.4657 141.546 28.5379C141.618 28.6101 141.667 28.702 141.686 28.8021C141.706 28.9023 141.696 29.006 141.657 29.1003C141.618 29.1946 141.552 29.2752 141.468 29.332C141.383 29.3887 141.283 29.4189 141.182 29.4189C141.045 29.4189 140.914 29.3646 140.818 29.2678C140.721 29.171 140.667 29.0397 140.667 28.9028ZM140.79 30.1725H141.562V34.7865H140.79V30.1725Z" fill="#828383"/>
<path d="M143.025 30.8156H142.427V30.1808H143.025V29.0195H143.792V30.1808H144.991V30.8156H143.792V33.5458C143.792 34 143.956 34.1652 144.43 34.1652H144.991V34.8103H144.301C143.488 34.8103 143.025 34.4748 143.025 33.5458V30.8156Z" fill="#828383"/>
<path d="M149.089 30.1836H149.877L147.108 36.9704H146.32L147.226 34.746L145.368 30.1836H146.196L147.643 33.9202L149.089 30.1836Z" fill="#828383"/>
</g>
<defs>
<clipPath id="clip0_1337_3811">
<rect width="150" height="37" fill="white"/>
</clipPath>
</defs>
</svg>
