<svg width="199" height="39" viewBox="0 0 199 39" fill="none" xmlns="http://www.w3.org/2000/svg">
<path d="M149.142 26.8626H149.145L149.289 26.7754C149.242 26.8034 149.192 26.8346 149.142 26.8626ZM151.582 24.7151C151.582 24.7151 151.566 24.737 151.557 24.7494L151.585 24.7183L151.582 24.7151ZM137.956 24.7151L137.981 24.7463C137.972 24.737 137.965 24.7245 137.959 24.7151H137.956ZM140.33 26.8252L140.393 26.8657C140.371 26.8502 140.352 26.8377 140.327 26.8252H140.33ZM140.524 22.7422C140.677 22.9417 140.845 23.1287 141.027 23.3032C140.849 23.1287 140.68 22.9417 140.524 22.7422Z" fill="white"/>
<path d="M153.384 30.4062L153.366 30.6587C153.019 35.1064 149.245 38.591 144.769 38.591C140.293 38.591 136.519 35.1064 136.173 30.6587L136.154 30.4062H139.399L139.424 30.612C139.74 33.3174 142.036 35.3558 144.769 35.3558C147.502 35.3558 149.801 33.3174 150.114 30.612L150.139 30.4062H153.384Z" fill="white"/>
<path d="M144.372 10.8438H144.628C144.588 10.8438 144.547 10.8437 144.51 10.8469C144.463 10.8437 144.419 10.8438 144.372 10.8438Z" fill="#F16A21"/>
<path d="M153.684 10.8438V14.0977H151.516C149.958 12.1435 147.571 10.8843 144.91 10.8438H153.684Z" fill="white"/>
<path d="M140.524 22.7383C140.677 22.9378 140.846 23.1248 141.027 23.2993C140.849 23.1248 140.68 22.9378 140.524 22.7383ZM140.524 22.7383C140.677 22.9378 140.846 23.1248 141.027 23.2993C140.849 23.1248 140.68 22.9378 140.524 22.7383ZM140.524 22.7383C140.677 22.9378 140.846 23.1248 141.027 23.2993C140.849 23.1248 140.68 22.9378 140.524 22.7383ZM151.463 24.8608C151.31 25.0478 151.151 25.2286 150.985 25.4C151.151 25.2286 151.313 25.0478 151.466 24.8608L151.498 24.8203L151.463 24.8608ZM140.524 22.7383C140.677 22.9378 140.846 23.1248 141.027 23.2993C140.849 23.1248 140.68 22.9378 140.524 22.7383Z" fill="#F16A21"/>
<path d="M144.769 10.8398C144.722 10.8398 144.675 10.8398 144.628 10.843H144.91C144.863 10.8398 144.816 10.8398 144.769 10.8398Z" fill="#F16A21"/>
<path d="M153.375 18.882C153.256 17.0743 152.582 15.4255 151.516 14.0977C149.958 12.1435 147.571 10.8843 144.91 10.8438H144.629C144.588 10.8438 144.547 10.8437 144.51 10.8469C140.093 10.9778 136.451 14.4593 136.163 18.882C136.151 19.069 136.145 19.256 136.145 19.4462C136.145 21.3599 136.76 23.1677 137.919 24.6637C137.931 24.6824 137.941 24.698 137.956 24.7136C137.963 24.7229 137.969 24.7354 137.978 24.7448C137.997 24.7697 138.019 24.7978 138.041 24.8227L138.075 24.8632C138.684 25.6112 139.403 26.2471 140.215 26.752L140.246 26.7738C140.246 26.7738 140.255 26.78 140.262 26.7832C140.287 26.7956 140.308 26.8081 140.33 26.8237C140.355 26.8362 140.374 26.8486 140.396 26.8611C140.405 26.8673 140.412 26.8736 140.421 26.8767C141.739 27.6434 143.242 28.0517 144.769 28.0517C146.297 28.0517 147.799 27.6434 149.111 26.8798C149.12 26.8736 149.133 26.8673 149.142 26.8611C149.192 26.833 149.242 26.8019 149.289 26.7738L149.327 26.752C149.933 26.3749 150.486 25.9229 150.985 25.4024C151.151 25.231 151.31 25.0502 151.463 24.8632L151.498 24.8227C151.519 24.7978 151.538 24.7728 151.557 24.7479C151.566 24.7354 151.576 24.7229 151.582 24.7136C151.594 24.698 151.604 24.6855 151.613 24.6731C152.778 23.1677 153.394 21.3599 153.394 19.4462C153.394 19.256 153.387 19.069 153.375 18.882ZM149.149 22.5599C149.117 22.6035 149.086 22.6471 149.055 22.6877L149.017 22.7375C148.393 23.5417 147.555 24.1495 146.597 24.4985C146.481 24.5391 146.365 24.5765 146.247 24.6107C145.294 24.885 144.244 24.8819 143.295 24.6107C143.173 24.5765 143.057 24.5391 142.942 24.4985C142.22 24.2367 141.57 23.8284 141.027 23.3017C140.846 23.1271 140.677 22.9401 140.524 22.7406L140.487 22.6939C140.468 22.669 140.449 22.6409 140.427 22.6129C140.415 22.5942 140.399 22.5755 140.387 22.5536C139.734 21.6404 139.387 20.5651 139.387 19.4462C139.387 19.281 139.396 19.1064 139.412 18.9194C139.684 16.1579 141.989 14.0759 144.769 14.0759C147.549 14.0759 149.855 16.1579 150.126 18.9163C150.142 19.1064 150.151 19.281 150.151 19.4462C150.151 20.5651 149.805 21.6404 149.149 22.5599Z" fill="#F16A21"/>
<path d="M39.9305 16.4297L39.4619 17.0468C39.6025 16.8286 39.7587 16.6229 39.9305 16.4297Z" fill="white"/>
<path d="M48.3551 24.3876C47.8084 23.8391 46.9619 23.7549 46.2934 24.1445C45.5437 24.584 44.6691 24.8365 43.7351 24.8365C40.9331 24.8365 38.6653 22.5705 38.6653 19.7779C38.6653 18.7774 38.9558 17.8454 39.4587 17.06L35.6196 22.1466C36.6442 25.6531 39.8898 28.2151 43.7382 28.2151C45.3219 28.2151 46.8057 27.7819 48.0708 27.0245C49.0017 26.4697 49.1516 25.1824 48.3863 24.4157L48.3582 24.3876H48.3551ZM36.6848 15.1182L37.2877 14.3203C37.069 14.5759 36.8691 14.8408 36.6848 15.1182Z" fill="#F16A21"/>
<path d="M48.3834 15.1439L48.3553 15.172C47.8086 15.7174 46.9621 15.8047 46.2936 15.4151C45.5439 14.9756 44.6693 14.7263 43.7353 14.7263C42.2203 14.7263 40.8615 15.3871 39.9306 16.4405C39.7588 16.6369 39.6026 16.8426 39.4589 17.0639H39.4558L35.6167 22.1537L32.8991 25.7505C31.3685 27.2777 29.2568 28.2221 26.9203 28.2221H26.8922C26.8609 28.2221 26.8297 28.2221 26.7953 28.2221C22.1816 28.1567 18.4644 24.404 18.4644 19.7849C18.4644 15.1658 22.2503 11.3477 26.9203 11.3477C28.504 11.3477 29.9878 11.7809 31.2529 12.5383C32.1837 13.0931 32.3337 14.3803 31.5684 15.1471L31.5403 15.1751C30.9936 15.7206 30.1502 15.8078 29.4786 15.4182C28.7289 14.9788 27.8543 14.7294 26.9203 14.7294C24.1183 14.7294 21.8505 16.9922 21.8505 19.7849C21.8505 22.5776 24.1183 24.8435 26.9203 24.8435C28.251 24.8435 29.4661 24.3292 30.3689 23.4877L30.4376 23.3942L36.6819 15.1221L37.2848 14.3242C38.8342 12.504 41.1488 11.3477 43.729 11.3477H43.7696C45.3377 11.357 46.8059 11.7902 48.0616 12.5383C48.9925 13.0931 49.1424 14.3834 48.374 15.1471L48.3834 15.1439Z" fill="white"/>
<path d="M8.4528 11.3477C3.78283 11.3477 0 15.1252 0 19.7818C0 24.4383 3.78283 28.2159 8.4528 28.2159C13.1228 28.2159 16.9056 24.4383 16.9056 19.7818C16.9056 15.1252 13.1228 11.3477 8.4528 11.3477ZM8.4528 24.8372C5.65394 24.8372 3.38612 22.5744 3.38612 19.7818C3.38612 16.9891 5.65394 14.7263 8.4528 14.7263C11.2517 14.7263 13.5195 16.9891 13.5195 19.7818C13.5195 22.5744 11.2517 24.8372 8.4528 24.8372Z" fill="white"/>
<path d="M58.6885 11.3478C53.9185 11.3759 50.0857 15.3405 50.2919 20.1497C50.4762 24.4727 53.981 27.9979 58.3136 28.2067C60.3753 28.3064 62.2901 27.6675 63.8051 26.533C63.8051 26.9942 63.9925 27.4119 64.2924 27.7111C64.5954 28.0134 65.014 28.2005 65.4763 28.2005H65.52C66.4415 28.2005 67.1912 27.4555 67.1912 26.533V19.9191C67.1912 15.2189 63.399 11.3198 58.6885 11.3478ZM58.7384 24.8374C55.9396 24.8374 53.6718 22.5746 53.6718 19.7819C53.6718 16.9892 55.9396 14.7264 58.7384 14.7264C61.5373 14.7264 63.8051 16.9892 63.8051 19.7819C63.8051 22.5746 61.5373 24.8374 58.7384 24.8374Z" fill="white"/>
<path d="M90.1849 17.2988V26.5153C90.1849 27.4472 89.429 28.2015 88.495 28.2015C87.561 28.2015 86.805 27.4472 86.805 26.5153V17.2614C86.805 15.8744 85.6649 14.6932 84.2748 14.7212C82.8848 14.7493 81.8383 15.8464 81.8383 17.1991V26.5184C81.8383 27.4503 81.0824 28.2046 80.1484 28.2046C79.2144 28.2046 78.4585 27.4503 78.4585 26.5184V17.2645C78.4585 15.8744 77.3183 14.6963 75.9282 14.7243C74.5382 14.7524 73.4949 15.8495 73.4949 17.2022V26.5215C73.4949 27.4534 72.7389 28.2077 71.8049 28.2077C70.8709 28.2077 70.115 27.4534 70.115 26.5215V17.3051C70.115 14.0511 72.7826 11.3145 76.0438 11.3519C77.6494 11.3706 79.1019 12.0345 80.1484 13.0911C81.198 12.0314 82.6505 11.3675 84.2592 11.3519C87.5173 11.3177 90.1849 14.0542 90.1849 17.3051V17.2988Z" fill="white"/>
<path d="M99.8999 18.1984H99.8874C96.7574 17.4535 96.4169 16.9641 96.4169 16.0976V16.054C96.4169 15.1813 97.3134 14.5735 98.6004 14.5735C99.3813 14.5735 100.162 14.7543 100.962 15.119C101.099 15.1813 101.562 15.4618 102.049 15.7641C102.839 16.2535 103.873 16.0228 104.379 15.2468C104.901 14.4489 104.66 13.3767 103.851 12.8749C103.37 12.5756 102.921 12.3014 102.783 12.2359C101.524 11.6281 100.159 11.332 98.6441 11.332C95.2299 11.332 92.8465 13.3767 92.8465 16.3065V16.3501C92.8465 19.4919 94.8894 20.5983 98.4224 21.4492C101.215 22.0913 101.687 22.5962 101.687 23.4783V23.5219C101.687 24.4757 100.718 25.1146 99.2751 25.1146C98.7503 25.1146 97.7664 24.884 96.8855 24.4912C96.1858 24.1796 95.4861 23.7931 94.905 23.4533C94.1179 22.9889 93.1058 23.2196 92.6091 23.9863L92.5966 24.005C92.0812 24.7967 92.3124 25.8533 93.1089 26.3582C93.7024 26.7354 94.299 27.1094 94.4958 27.2122C95.9546 27.9665 97.5602 28.3623 99.2127 28.3623C102.886 28.3623 105.257 26.3582 105.257 23.2539V23.2102C105.257 20.5796 103.705 19.1303 99.8999 18.2046V18.1984Z" fill="white"/>
<path d="M115.475 28.3491C114.119 28.3491 112.907 28.0032 111.836 27.3081C110.764 26.6131 109.918 25.6032 109.296 24.2817C108.674 22.9601 108.362 21.3519 108.362 19.4631C108.362 17.5743 108.678 15.9348 109.312 14.6164C109.946 13.298 110.802 12.3006 111.879 11.6243C112.957 10.9479 114.16 10.6113 115.484 10.6113C116.496 10.6113 117.327 10.7827 117.977 11.1225C118.627 11.4622 119.145 11.8705 119.526 12.3443C119.907 12.818 120.204 13.2668 120.413 13.6845H120.582V5.09766H124.659V28.053H120.66V25.3414H120.413C120.204 25.7591 119.901 26.2016 119.504 26.6692C119.108 27.1367 118.583 27.5356 117.933 27.8629C117.283 28.1902 116.462 28.3554 115.472 28.3554L115.475 28.3491ZM116.609 25.0204C117.471 25.0204 118.205 24.7866 118.811 24.3191C119.417 23.8516 119.879 23.2001 120.192 22.3617C120.507 21.5264 120.663 20.5508 120.663 19.435C120.663 18.3192 120.507 17.353 120.198 16.5333C119.885 15.7104 119.429 15.0715 118.827 14.6164C118.224 14.1614 117.483 13.9338 116.609 13.9338C115.734 13.9338 114.947 14.1707 114.341 14.6414C113.735 15.112 113.279 15.7634 112.97 16.5925C112.663 17.4216 112.51 18.3722 112.51 19.4381C112.51 20.5041 112.667 21.4734 112.976 22.315C113.285 23.1565 113.747 23.8173 114.356 24.3004C114.966 24.7835 115.718 25.0235 116.609 25.0235V25.0204Z" fill="#F16A21"/>
<path d="M131.056 8.38374C130.412 8.38374 129.856 8.16868 129.394 7.73856C128.929 7.30844 128.698 6.79105 128.698 6.18639C128.698 5.58172 128.929 5.05187 129.394 4.62174C129.86 4.19162 130.412 3.97656 131.056 3.97656C131.699 3.97656 132.265 4.19162 132.724 4.62174C133.183 5.05187 133.414 5.57237 133.414 6.18639C133.414 6.8004 133.183 7.30844 132.724 7.73856C132.265 8.16868 131.709 8.38374 131.056 8.38374ZM129.013 28.0446V10.8273H133.08V28.0446H129.013Z" fill="#F16A21"/>
<path d="M158.535 8.38374C157.892 8.38374 157.336 8.16868 156.873 7.73856C156.408 7.30844 156.177 6.79105 156.177 6.18639C156.177 5.58172 156.408 5.05187 156.873 4.62174C157.339 4.19162 157.892 3.97656 158.535 3.97656C159.179 3.97656 159.744 4.19162 160.203 4.62174C160.662 5.05187 160.894 5.57237 160.894 6.18639C160.894 6.8004 160.662 7.30844 160.203 7.73856C159.744 8.16868 159.188 8.38374 158.535 8.38374ZM156.492 28.0446V10.8273H160.559V28.0446H156.492Z" fill="#F16A21"/>
<path d="M173.354 10.8298V13.9684H163.433V10.8298H173.354ZM165.882 6.70312H169.949V22.8669C169.949 23.4124 170.034 23.83 170.202 24.1168C170.371 24.4035 170.593 24.5999 170.871 24.7059C171.149 24.8118 171.455 24.8617 171.792 24.8617C172.045 24.8617 172.279 24.843 172.495 24.8056C172.707 24.7682 172.87 24.7339 172.982 24.7059L173.666 27.8788C173.448 27.9536 173.142 28.0346 172.739 28.125C172.339 28.2154 171.848 28.2684 171.274 28.2809C170.255 28.312 169.337 28.1562 168.522 27.8165C167.706 27.4767 167.06 26.9469 166.585 26.23C166.11 25.5131 165.876 24.6155 165.882 23.5402V6.70312Z" fill="#F16A21"/>
<path d="M181.723 28.39C180.629 28.39 179.645 28.1937 178.774 27.801C177.902 27.4082 177.212 26.8285 176.706 26.0587C176.2 25.2888 175.947 24.3413 175.947 23.213C175.947 22.2406 176.128 21.4395 176.487 20.8037C176.846 20.1679 177.337 19.6598 177.958 19.2796C178.58 18.8993 179.283 18.6095 180.064 18.41C180.848 18.2105 181.657 18.0671 182.497 17.9799C183.509 17.8739 184.328 17.7804 184.959 17.6931C185.587 17.6058 186.046 17.4718 186.336 17.291C186.624 17.1072 186.767 16.8235 186.767 16.4339V16.3654C186.767 15.5207 186.517 14.8662 186.015 14.4049C185.512 13.9405 184.79 13.7098 183.847 13.7098C182.85 13.7098 182.063 13.928 181.482 14.3612C180.901 14.7945 180.511 15.3056 180.307 15.8978L176.509 15.3586C176.809 14.3114 177.302 13.4355 177.993 12.7311C178.683 12.0236 179.523 11.4938 180.52 11.1384C181.516 10.7831 182.616 10.6055 183.822 10.6055C184.653 10.6055 185.48 10.7021 186.305 10.8985C187.13 11.0917 187.883 11.4127 188.564 11.8584C189.244 12.3041 189.794 12.9057 190.21 13.6693C190.625 14.4329 190.834 15.3836 190.834 16.5274V28.0503H186.924V25.6846H186.789C186.542 26.1615 186.196 26.6103 185.749 27.0249C185.302 27.4394 184.746 27.7729 184.075 28.0223C183.403 28.2716 182.619 28.3963 181.723 28.3963V28.39ZM182.778 25.4104C183.594 25.4104 184.303 25.2483 184.902 24.9241C185.502 24.6 185.965 24.1668 186.289 23.6307C186.614 23.0914 186.777 22.5055 186.777 21.8697V19.8406C186.649 19.9466 186.433 20.0432 186.13 20.1305C185.827 20.2177 185.487 20.2988 185.115 20.3673C184.74 20.4359 184.368 20.4951 184.003 20.5481C183.637 20.6011 183.319 20.6447 183.047 20.6821C182.441 20.7632 181.897 20.9003 181.42 21.0873C180.942 21.2743 180.561 21.533 180.286 21.8665C180.008 22.2 179.87 22.627 179.87 23.1507C179.87 23.8987 180.142 24.4628 180.692 24.8431C181.238 25.2234 181.935 25.4135 182.781 25.4135L182.778 25.4104Z" fill="#F16A21"/>
<path d="M199 5.08594V28.0413H194.933V5.08594H199Z" fill="#F16A21"/>
<path d="M0.724609 7.47907V0.101562H3.36103C3.9358 0.101562 4.41373 0.204418 4.7917 0.413244C5.16967 0.622071 5.4508 0.908819 5.64135 1.26725C5.8319 1.62569 5.92249 2.03399 5.92249 2.48593C5.92249 2.93787 5.82877 3.34617 5.63823 3.70772C5.4508 4.06927 5.16654 4.35602 4.78545 4.56485C4.40748 4.77367 3.92955 4.87965 3.35791 4.87965H1.54615V3.93525H3.25795C3.6203 3.93525 3.91706 3.87291 4.14196 3.74512C4.36687 3.61733 4.53555 3.44591 4.63864 3.22773C4.74172 3.00956 4.79795 2.76021 4.79795 2.48281C4.79795 2.20542 4.74484 1.95607 4.63864 1.74101C4.53243 1.52595 4.36687 1.35452 4.13884 1.23297C3.91081 1.11141 3.61093 1.04908 3.24233 1.04908H1.8429V7.46972H0.727733L0.724609 7.47907Z" fill="#8E8E8E"/>
<path d="M13.7567 3.79005C13.7567 4.57861 13.613 5.25496 13.3225 5.8191C13.0351 6.38325 12.6384 6.8196 12.1354 7.12193C11.6325 7.42738 11.064 7.57699 10.4268 7.57699C9.78952 7.57699 9.21476 7.42426 8.71496 7.12193C8.21204 6.8196 7.81845 6.38325 7.52795 5.81598C7.23744 5.24872 7.09375 4.57237 7.09375 3.78694C7.09375 3.0015 7.23744 2.32203 7.52795 1.75789C7.81845 1.19374 8.21204 0.757387 8.71496 0.455056C9.21788 0.149607 9.7864 0 10.4268 0C11.0671 0 11.6325 0.152724 12.1354 0.455056C12.6384 0.757387 13.0319 1.19374 13.3225 1.75789C13.6098 2.32203 13.7567 2.99838 13.7567 3.78694V3.79005ZM12.654 3.79005C12.654 3.18851 12.5571 2.68358 12.3635 2.27216C12.1698 1.86074 11.9043 1.54906 11.57 1.33712C11.2358 1.12517 10.8547 1.0192 10.433 1.0192C10.0113 1.0192 9.62709 1.12517 9.29285 1.33712C8.95861 1.54906 8.6931 1.86074 8.49943 2.27216C8.30575 2.68358 8.20892 3.18851 8.20892 3.79005C8.20892 4.3916 8.30575 4.89652 8.49943 5.30794C8.6931 5.71936 8.95861 6.03105 9.29285 6.24299C9.62709 6.45493 10.0082 6.5609 10.433 6.5609C10.8578 6.5609 11.2358 6.45493 11.57 6.24299C11.9043 6.03105 12.1698 5.71936 12.3635 5.30794C12.5571 4.89652 12.654 4.38848 12.654 3.79005Z" fill="#8E8E8E"/>
<path d="M16.6119 7.47907L14.5627 0.101562H15.7373L17.1773 5.81469H17.246L18.7423 0.101562H19.9043L21.4037 5.81781H21.4724L22.9093 0.101562H24.087L22.0316 7.47596H20.9102L19.3545 1.94984H19.2983L17.7427 7.47596H16.615L16.6119 7.47907Z" fill="#8E8E8E"/>
<path d="M25.2209 7.47907V0.101562H29.8565V1.05843H26.3361V3.30565H29.6129V4.2594H26.3361V6.51909H29.8971V7.47596H25.2178L25.2209 7.47907Z" fill="#8E8E8E"/>
<path d="M31.4651 7.47907V0.101562H34.1015C34.6732 0.101562 35.1511 0.201301 35.5291 0.39766C35.907 0.59402 36.1913 0.865183 36.3787 1.21427C36.5661 1.56023 36.6598 1.9623 36.6598 2.41424C36.6598 2.86618 36.5661 3.26202 36.3756 3.60487C36.1882 3.94772 35.9039 4.21265 35.5228 4.40277C35.1448 4.5929 34.6669 4.6864 34.0953 4.6864H32.0992V3.72954H33.9953C34.3545 3.72954 34.6513 3.67655 34.8762 3.5737C35.1042 3.47084 35.2698 3.32124 35.376 3.12488C35.4822 2.92852 35.5353 2.69164 35.5353 2.41424C35.5353 2.13685 35.4822 1.89373 35.376 1.69114C35.2698 1.48855 35.1011 1.32959 34.8731 1.2205C34.645 1.11141 34.3483 1.05531 33.9797 1.05531H32.5803V7.47596H31.4651V7.47907ZM35.1136 4.15031L36.941 7.47907H35.6696L33.8797 4.15031H35.1136Z" fill="#8E8E8E"/>
<path d="M38.1345 7.47907V0.101562H42.7701V1.05843H39.2496V3.30565H42.5264V4.2594H39.2496V6.51909H42.8107V7.47596H38.1313L38.1345 7.47907Z" fill="#8E8E8E"/>
<path d="M46.7746 7.47907H44.3818V0.101562H46.8496C47.5743 0.101562 48.1959 0.248053 48.7144 0.544151C49.233 0.840249 49.6328 1.26102 49.9108 1.80958C50.1888 2.35814 50.3263 3.01579 50.3263 3.78253C50.3263 4.54926 50.1857 5.21003 49.9046 5.76171C49.6234 6.31338 49.2205 6.73727 48.6894 7.03649C48.1584 7.3357 47.5212 7.48219 46.7684 7.48219L46.7746 7.47907ZM45.497 6.50663H46.7121C47.2744 6.50663 47.743 6.40065 48.1147 6.18871C48.4864 5.97677 48.7675 5.6682 48.9518 5.26302C49.1361 4.85783 49.2299 4.36537 49.2299 3.77941C49.2299 3.19345 49.1393 2.71034 48.955 2.30515C48.7707 1.90308 48.4958 1.59452 48.1334 1.38569C47.7711 1.17687 47.3181 1.07089 46.7809 1.07089H45.497V6.50039V6.50663Z" fill="#8E8E8E"/>
<path d="M54.5244 7.47907V0.101562H57.2327C57.7575 0.101562 58.1917 0.185717 58.5353 0.360258C58.8789 0.531684 59.1382 0.762328 59.3068 1.05531C59.4786 1.34829 59.563 1.67556 59.563 2.04022C59.563 2.34879 59.5068 2.60749 59.3943 2.81631C59.2818 3.02514 59.1319 3.19345 58.9414 3.32124C58.7539 3.44591 58.5446 3.53941 58.3197 3.59552V3.6672C58.5665 3.67967 58.8039 3.75759 59.0382 3.90408C59.2725 4.05057 59.4661 4.25628 59.6223 4.52121C59.7754 4.78926 59.8535 5.11341 59.8535 5.49366C59.8535 5.87391 59.766 6.20741 59.588 6.50663C59.4099 6.80584 59.1382 7.04272 58.7696 7.21726C58.401 7.3918 57.9293 7.47907 57.3576 7.47907H54.5244ZM55.6396 3.29319H57.1327C57.3826 3.29319 57.6075 3.24643 57.8106 3.14981C58.0105 3.05319 58.1698 2.91917 58.2916 2.74463C58.4134 2.57008 58.4697 2.36437 58.4697 2.1275C58.4697 1.82205 58.3635 1.56647 58.1479 1.36076C57.9324 1.15505 57.6044 1.05219 57.164 1.05219H55.6396V3.2963V3.29319ZM55.6396 6.52533H57.2483C57.7825 6.52533 58.1667 6.42247 58.3978 6.21676C58.629 6.01105 58.7446 5.75236 58.7446 5.44379C58.7446 5.21003 58.6852 4.99809 58.5665 4.80173C58.4478 4.60848 58.2823 4.45264 58.0636 4.33732C57.8449 4.222 57.5888 4.16589 57.2889 4.16589H55.6396V6.52844V6.52533Z" fill="#8E8E8E"/>
<path d="M60.7158 0.101562H61.9841L63.9145 3.45526H63.9926L65.9231 0.101562H67.1913L64.508 4.58043V7.47596H63.396V4.58043L60.7158 0.101562Z" fill="#8E8E8E"/>
</svg>
