<svg width="199" height="39" viewBox="0 0 199 39" fill="none" xmlns="http://www.w3.org/2000/svg">
<path d="M149.142 26.8607H149.145L149.289 26.7734C149.242 26.8015 149.192 26.8326 149.142 26.8607ZM151.582 24.7132C151.582 24.7132 151.566 24.735 151.557 24.7475L151.585 24.7163L151.582 24.7132ZM137.956 24.7132L137.981 24.7443C137.972 24.735 137.965 24.7225 137.959 24.7132H137.956ZM140.33 26.8233L140.393 26.8638C140.371 26.8482 140.352 26.8357 140.327 26.8233H140.33ZM140.524 22.7402C140.677 22.9397 140.845 23.1267 141.027 23.3013C140.849 23.1267 140.68 22.9397 140.524 22.7402Z" fill="white"/>
<path d="M153.384 30.4043L153.365 30.6568C153.019 35.1045 149.245 38.5891 144.769 38.5891C140.293 38.5891 136.519 35.1045 136.172 30.6568L136.154 30.4043H139.399L139.424 30.61C139.74 33.3154 142.036 35.3538 144.769 35.3538C147.502 35.3538 149.801 33.3154 150.114 30.61L150.139 30.4043H153.384Z" fill="white"/>
<path d="M144.372 10.8438H144.628C144.588 10.8438 144.547 10.8437 144.51 10.8469C144.463 10.8437 144.419 10.8438 144.372 10.8438Z" fill="#F16A21"/>
<path d="M153.684 10.8438V14.0977H151.516C149.957 12.1435 147.571 10.8843 144.91 10.8438H153.684Z" fill="white"/>
<path d="M140.524 22.7402C140.677 22.9397 140.846 23.1267 141.027 23.3013C140.849 23.1267 140.68 22.9397 140.524 22.7402ZM140.524 22.7402C140.677 22.9397 140.846 23.1267 141.027 23.3013C140.849 23.1267 140.68 22.9397 140.524 22.7402ZM140.524 22.7402C140.677 22.9397 140.846 23.1267 141.027 23.3013C140.849 23.1267 140.68 22.9397 140.524 22.7402ZM151.463 24.8628C151.31 25.0498 151.151 25.2306 150.985 25.402C151.151 25.2306 151.313 25.0498 151.466 24.8628L151.497 24.8223L151.463 24.8628ZM140.524 22.7402C140.677 22.9397 140.846 23.1267 141.027 23.3013C140.849 23.1267 140.68 22.9397 140.524 22.7402Z" fill="#F16A21"/>
<path d="M144.769 10.8408C144.722 10.8408 144.675 10.8408 144.628 10.8439H144.91C144.863 10.8408 144.816 10.8408 144.769 10.8408Z" fill="#F16A21"/>
<path d="M153.375 18.882C153.256 17.0743 152.581 15.4255 151.516 14.0977C149.958 12.1435 147.571 10.8843 144.91 10.8438H144.628C144.588 10.8438 144.547 10.8437 144.51 10.8469C140.093 10.9778 136.451 14.4593 136.163 18.882C136.151 19.069 136.144 19.256 136.144 19.4462C136.144 21.3599 136.76 23.1677 137.919 24.6637C137.931 24.6824 137.941 24.698 137.956 24.7136C137.962 24.7229 137.969 24.7354 137.978 24.7448C137.997 24.7697 138.019 24.7978 138.041 24.8227L138.075 24.8632C138.684 25.6112 139.402 26.2471 140.215 26.752L140.246 26.7738C140.246 26.7738 140.255 26.78 140.261 26.7832C140.286 26.7956 140.308 26.8081 140.33 26.8237C140.355 26.8362 140.374 26.8486 140.396 26.8611C140.405 26.8673 140.411 26.8736 140.421 26.8767C141.739 27.6434 143.242 28.0517 144.769 28.0517C146.297 28.0517 147.799 27.6434 149.111 26.8798C149.12 26.8736 149.133 26.8673 149.142 26.8611C149.192 26.833 149.242 26.8019 149.289 26.7738L149.327 26.752C149.933 26.3749 150.485 25.9229 150.985 25.4024C151.151 25.231 151.31 25.0502 151.463 24.8632L151.498 24.8227C151.519 24.7978 151.538 24.7728 151.557 24.7479C151.566 24.7354 151.576 24.7229 151.582 24.7136C151.594 24.698 151.604 24.6855 151.613 24.6731C152.778 23.1677 153.394 21.3599 153.394 19.4462C153.394 19.256 153.387 19.069 153.375 18.882ZM149.148 22.5599C149.117 22.6035 149.086 22.6471 149.055 22.6877L149.017 22.7375C148.393 23.5417 147.555 24.1495 146.596 24.4985C146.481 24.5391 146.365 24.5765 146.247 24.6107C145.294 24.885 144.244 24.8819 143.295 24.6107C143.173 24.5765 143.057 24.5391 142.942 24.4985C142.22 24.2367 141.57 23.8284 141.027 23.3017C140.846 23.1271 140.677 22.9401 140.524 22.7406L140.486 22.6939C140.468 22.669 140.449 22.6409 140.427 22.6129C140.415 22.5942 140.399 22.5755 140.386 22.5536C139.734 21.6404 139.387 20.5651 139.387 19.4462C139.387 19.281 139.396 19.1064 139.412 18.9194C139.684 16.1579 141.989 14.0759 144.769 14.0759C147.549 14.0759 149.854 16.1579 150.126 18.9163C150.142 19.1064 150.151 19.281 150.151 19.4462C150.151 20.5651 149.804 21.6404 149.148 22.5599Z" fill="#F16A21"/>
<path d="M39.9306 16.4326L39.462 17.0497C39.6026 16.8316 39.7588 16.6259 39.9306 16.4326Z" fill="white"/>
<path d="M48.3552 24.3867C47.8085 23.8381 46.962 23.7539 46.2935 24.1435C45.5438 24.583 44.6692 24.8355 43.7352 24.8355C40.9332 24.8355 38.6654 22.5696 38.6654 19.7769C38.6654 18.7764 38.9559 17.8445 39.4588 17.059L35.6198 22.1457C36.6443 25.6521 39.8899 28.2141 43.7383 28.2141C45.322 28.2141 46.8058 27.7809 48.0709 27.0235C49.0018 26.4687 49.1517 25.1815 48.3864 24.4147L48.3583 24.3867H48.3552ZM36.6849 15.1172L37.2878 14.3193C37.0692 14.5749 36.8692 14.8398 36.6849 15.1172Z" fill="#F16A21"/>
<path d="M48.3834 15.142L48.3553 15.17C47.8086 15.7155 46.9621 15.8028 46.2936 15.4132C45.5439 14.9737 44.6693 14.7243 43.7353 14.7243C42.2203 14.7243 40.8615 15.3851 39.9306 16.4386C39.7588 16.6349 39.6026 16.8407 39.4589 17.062H39.4558L35.6167 22.1517L32.8991 25.7485C31.3685 27.2758 29.2568 28.2202 26.9203 28.2202H26.8922C26.8609 28.2202 26.8297 28.2202 26.7953 28.2202C22.1816 28.1547 18.4644 24.4021 18.4644 19.7829C18.4644 15.1638 22.2503 11.3457 26.9203 11.3457C28.504 11.3457 29.9878 11.7789 31.2529 12.5363C32.1837 13.0911 32.3337 14.3784 31.5684 15.1451L31.5403 15.1732C30.9936 15.7186 30.1502 15.8059 29.4786 15.4163C28.7289 14.9768 27.8543 14.7275 26.9203 14.7275C24.1183 14.7275 21.8505 16.9903 21.8505 19.7829C21.8505 22.5756 24.1183 24.8415 26.9203 24.8415C28.251 24.8415 29.4661 24.3273 30.3689 23.4857L30.4376 23.3922L36.6819 15.1202L37.2848 14.3223C38.8342 12.502 41.1488 11.3457 43.729 11.3457H43.7696C45.3377 11.3551 46.8059 11.7883 48.0616 12.5363C48.9925 13.0911 49.1424 14.3815 48.374 15.1451L48.3834 15.142Z" fill="white"/>
<path d="M8.4528 11.3457C3.78283 11.3457 0 15.1233 0 19.7798C0 24.4363 3.78283 28.2139 8.4528 28.2139C13.1228 28.2139 16.9056 24.4363 16.9056 19.7798C16.9056 15.1233 13.1228 11.3457 8.4528 11.3457ZM8.4528 24.8353C5.65394 24.8353 3.38612 22.5725 3.38612 19.7798C3.38612 16.9871 5.65394 14.7243 8.4528 14.7243C11.2517 14.7243 13.5195 16.9871 13.5195 19.7798C13.5195 22.5725 11.2517 24.8353 8.4528 24.8353Z" fill="white"/>
<path d="M58.6886 11.3459C53.9186 11.3739 50.0858 15.3385 50.292 20.1478C50.4763 24.4708 53.9811 27.9959 58.3137 28.2047C60.3754 28.3045 62.2902 27.6655 63.8052 26.531C63.8052 26.9923 63.9927 27.4099 64.2925 27.7092C64.5955 28.0115 65.0141 28.1985 65.4764 28.1985H65.5202C66.4417 28.1985 67.1913 27.4536 67.1913 26.531V19.9171C67.1913 15.2169 63.3991 11.3178 58.6886 11.3459ZM58.7385 24.8354C55.9397 24.8354 53.6719 22.5726 53.6719 19.78C53.6719 16.9873 55.9397 14.7245 58.7385 14.7245C61.5374 14.7245 63.8052 16.9873 63.8052 19.78C63.8052 22.5726 61.5374 24.8354 58.7385 24.8354Z" fill="white"/>
<path d="M90.185 17.2988V26.5153C90.185 27.4472 89.4291 28.2015 88.4951 28.2015C87.5611 28.2015 86.8052 27.4472 86.8052 26.5153V17.2614C86.8052 15.8744 85.665 14.6932 84.275 14.7212C82.8849 14.7493 81.8384 15.8464 81.8384 17.1991V26.5184C81.8384 27.4503 81.0825 28.2046 80.1485 28.2046C79.2145 28.2046 78.4586 27.4503 78.4586 26.5184V17.2645C78.4586 15.8744 77.3184 14.6963 75.9284 14.7243C74.5383 14.7524 73.495 15.8495 73.495 17.2022V26.5215C73.495 27.4534 72.739 28.2077 71.805 28.2077C70.871 28.2077 70.1151 27.4534 70.1151 26.5215V17.3051C70.1151 14.0511 72.7828 11.3145 76.0439 11.3519C77.6495 11.3706 79.1021 12.0345 80.1485 13.0911C81.1981 12.0314 82.6506 11.3675 84.2593 11.3519C87.5174 11.3177 90.185 14.0542 90.185 17.3051V17.2988Z" fill="white"/>
<path d="M99.8999 18.1964H99.8874C96.7574 17.4515 96.4169 16.9622 96.4169 16.0957V16.0521C96.4169 15.1794 97.3134 14.5716 98.6004 14.5716C99.3813 14.5716 100.162 14.7523 100.962 15.117C101.099 15.1794 101.562 15.4599 102.049 15.7622C102.839 16.2515 103.873 16.0209 104.379 15.2448C104.901 14.4469 104.66 13.3747 103.851 12.8729C103.37 12.5737 102.921 12.2994 102.783 12.234C101.524 11.6262 100.159 11.3301 98.6441 11.3301C95.2299 11.3301 92.8465 13.3747 92.8465 16.3045V16.3482C92.8465 19.4899 94.8894 20.5964 98.4224 21.4473C101.215 22.0893 101.687 22.5943 101.687 23.4763V23.52C101.687 24.4737 100.718 25.1127 99.2751 25.1127C98.7503 25.1127 97.7664 24.882 96.8855 24.4893C96.1858 24.1776 95.4861 23.7911 94.905 23.4514C94.1179 22.987 93.1058 23.2176 92.6091 23.9844L92.5966 24.0031C92.0812 24.7947 92.3124 25.8513 93.1089 26.3563C93.7024 26.7334 94.299 27.1074 94.4958 27.2103C95.9546 27.9645 97.5602 28.3604 99.2127 28.3604C102.886 28.3604 105.257 26.3563 105.257 23.2519V23.2083C105.257 20.5777 103.705 19.1284 99.8999 18.2027V18.1964Z" fill="white"/>
<path d="M115.475 28.3482C114.119 28.3482 112.907 28.0022 111.836 27.3071C110.764 26.6121 109.918 25.6022 109.296 24.2807C108.674 22.9592 108.362 21.3509 108.362 19.4621C108.362 17.5733 108.678 15.9339 109.312 14.6154C109.946 13.297 110.802 12.2996 111.879 11.6233C112.957 10.9469 114.16 10.6103 115.484 10.6103C116.496 10.6103 117.327 10.7818 117.977 11.1215C118.627 11.4612 119.145 11.8695 119.526 12.3433C119.907 12.817 120.204 13.2659 120.413 13.6835H120.582V5.09668H124.659V28.0521H120.66V25.3404H120.413C120.204 25.7581 119.901 26.2007 119.504 26.6682C119.108 27.1357 118.583 27.5347 117.933 27.8619C117.283 28.1892 116.462 28.3544 115.472 28.3544L115.475 28.3482ZM116.609 25.0194C117.471 25.0194 118.205 24.7856 118.811 24.3181C119.417 23.8506 119.879 23.1992 120.192 22.3607C120.507 21.5254 120.663 20.5499 120.663 19.434C120.663 18.3182 120.507 17.352 120.198 16.5323C119.885 15.7095 119.429 15.0705 118.827 14.6154C118.224 14.1604 117.483 13.9329 116.609 13.9329C115.734 13.9329 114.947 14.1697 114.341 14.6404C113.735 15.111 113.279 15.7624 112.97 16.5915C112.663 17.4206 112.51 18.3712 112.51 19.4372C112.51 20.5031 112.667 21.4724 112.976 22.314C113.285 23.1555 113.747 23.8163 114.356 24.2994C114.966 24.7825 115.718 25.0225 116.609 25.0225V25.0194Z" fill="#F16A21"/>
<path d="M131.056 8.38472C130.412 8.38472 129.856 8.16966 129.394 7.73954C128.929 7.30942 128.698 6.79203 128.698 6.18736C128.698 5.5827 128.929 5.05284 129.394 4.62272C129.86 4.1926 130.412 3.97754 131.056 3.97754C131.699 3.97754 132.265 4.1926 132.724 4.62272C133.183 5.05284 133.414 5.57335 133.414 6.18736C133.414 6.80138 133.183 7.30942 132.724 7.73954C132.265 8.16966 131.709 8.38472 131.056 8.38472ZM129.013 28.0456V10.8283H133.08V28.0456H129.013Z" fill="#F16A21"/>
<path d="M158.535 8.38472C157.892 8.38472 157.336 8.16966 156.873 7.73954C156.408 7.30942 156.177 6.79203 156.177 6.18736C156.177 5.5827 156.408 5.05284 156.873 4.62272C157.339 4.1926 157.892 3.97754 158.535 3.97754C159.179 3.97754 159.744 4.1926 160.203 4.62272C160.662 5.05284 160.894 5.57335 160.894 6.18736C160.894 6.80138 160.662 7.30942 160.203 7.73954C159.744 8.16966 159.188 8.38472 158.535 8.38472ZM156.492 28.0456V10.8283H160.559V28.0456H156.492Z" fill="#F16A21"/>
<path d="M173.354 10.8288V13.9675H163.433V10.8288H173.354ZM165.882 6.70215H169.949V22.866C169.949 23.4114 170.034 23.8291 170.202 24.1158C170.371 24.4026 170.593 24.5989 170.871 24.7049C171.149 24.8109 171.455 24.8607 171.792 24.8607C172.045 24.8607 172.28 24.842 172.495 24.8046C172.708 24.7672 172.87 24.7329 172.982 24.7049L173.667 27.8778C173.448 27.9526 173.142 28.0337 172.739 28.124C172.339 28.2144 171.849 28.2674 171.274 28.2799C170.255 28.3111 169.337 28.1552 168.522 27.8155C167.706 27.4757 167.06 26.9459 166.585 26.229C166.11 25.5122 165.876 24.6145 165.882 23.5392V6.70215Z" fill="#F16A21"/>
<path d="M181.723 28.391C180.629 28.391 179.645 28.1947 178.774 27.8019C177.902 27.4092 177.212 26.8295 176.706 26.0596C176.2 25.2898 175.947 24.3423 175.947 23.214C175.947 22.2415 176.128 21.4405 176.487 20.8047C176.846 20.1688 177.337 19.6608 177.958 19.2806C178.58 18.9003 179.283 18.6104 180.064 18.411C180.848 18.2115 181.657 18.0681 182.497 17.9808C183.509 17.8749 184.328 17.7814 184.959 17.6941C185.587 17.6068 186.046 17.4728 186.336 17.292C186.624 17.1081 186.767 16.8245 186.767 16.4349V16.3663C186.767 15.5217 186.517 14.8671 186.015 14.4058C185.512 13.9414 184.79 13.7108 183.847 13.7108C182.85 13.7108 182.063 13.929 181.482 14.3622C180.901 14.7955 180.511 15.3066 180.307 15.8988L176.509 15.3596C176.809 14.3123 177.302 13.4365 177.993 12.7321C178.683 12.0246 179.523 11.4947 180.52 11.1394C181.516 10.7841 182.616 10.6064 183.822 10.6064C184.653 10.6064 185.48 10.7031 186.305 10.8994C187.13 11.0927 187.883 11.4137 188.564 11.8594C189.244 12.3051 189.794 12.9067 190.21 13.6703C190.625 14.4339 190.834 15.3845 190.834 16.5284V28.0513H186.924V25.6856H186.789C186.542 26.1625 186.196 26.6113 185.749 27.0259C185.302 27.4404 184.746 27.7739 184.075 28.0232C183.403 28.2726 182.619 28.3973 181.723 28.3973V28.391ZM182.778 25.4113C183.594 25.4113 184.303 25.2493 184.902 24.9251C185.502 24.601 185.965 24.1677 186.289 23.6316C186.614 23.0924 186.777 22.5065 186.777 21.8706V19.8416C186.649 19.9476 186.433 20.0442 186.13 20.1314C185.827 20.2187 185.487 20.2998 185.115 20.3683C184.74 20.4369 184.368 20.4961 184.003 20.5491C183.637 20.6021 183.319 20.6457 183.047 20.6831C182.441 20.7642 181.897 20.9013 181.42 21.0883C180.942 21.2753 180.561 21.534 180.286 21.8675C180.008 22.201 179.87 22.628 179.87 23.1516C179.87 23.8997 180.142 24.4638 180.692 24.8441C181.238 25.2243 181.935 25.4145 182.781 25.4145L182.778 25.4113Z" fill="#F16A21"/>
<path d="M199 5.08691V28.0423H194.933V5.08691H199Z" fill="#F16A21"/>
<path d="M0.724731 7.4781V0.100586H3.36115C3.93592 0.100586 4.41385 0.203441 4.79182 0.412268C5.16979 0.621095 5.45093 0.907842 5.64147 1.26628C5.83202 1.62471 5.92261 2.03301 5.92261 2.48495C5.92261 2.93689 5.8289 3.3452 5.63835 3.70675C5.45092 4.0683 5.16667 4.35504 4.78557 4.56387C4.4076 4.7727 3.92967 4.87867 3.35803 4.87867H1.54627V3.93427H3.25807C3.62042 3.93427 3.91718 3.87194 4.14209 3.74415C4.36699 3.61636 4.53567 3.44493 4.63876 3.22676C4.74184 3.00858 4.79807 2.75923 4.79807 2.48184C4.79807 2.20444 4.74496 1.95509 4.63876 1.74003C4.53255 1.52497 4.36699 1.35355 4.13896 1.23199C3.91093 1.11044 3.61105 1.0481 3.24245 1.0481H1.84302V7.46875H0.727855L0.724731 7.4781Z" fill="#8E8E8E"/>
<path d="M13.7569 3.79005C13.7569 4.57861 13.6132 5.25496 13.3227 5.8191C13.0353 6.38325 12.6386 6.8196 12.1357 7.12193C11.6328 7.42738 11.0642 7.57699 10.427 7.57699C9.78977 7.57699 9.215 7.42426 8.71521 7.12193C8.21229 6.8196 7.8187 6.38325 7.52819 5.81598C7.23769 5.24872 7.09399 4.57237 7.09399 3.78694C7.09399 3.0015 7.23769 2.32203 7.52819 1.75789C7.8187 1.19374 8.21229 0.757387 8.71521 0.455056C9.21813 0.149607 9.78664 0 10.427 0C11.0674 0 11.6328 0.152724 12.1357 0.455056C12.6386 0.757387 13.0322 1.19374 13.3227 1.75789C13.6101 2.32203 13.7569 2.99838 13.7569 3.78694V3.79005ZM12.6542 3.79005C12.6542 3.18851 12.5574 2.68358 12.3637 2.27216C12.17 1.86074 11.9045 1.54906 11.5703 1.33712C11.2361 1.12517 10.855 1.0192 10.4333 1.0192C10.0116 1.0192 9.62733 1.12517 9.2931 1.33712C8.95886 1.54906 8.69334 1.86074 8.49967 2.27216C8.306 2.68358 8.20916 3.18851 8.20916 3.79005C8.20916 4.3916 8.306 4.89652 8.49967 5.30794C8.69334 5.71936 8.95886 6.03105 9.2931 6.24299C9.62733 6.45493 10.0084 6.5609 10.4333 6.5609C10.8581 6.5609 11.2361 6.45493 11.5703 6.24299C11.9045 6.03105 12.17 5.71936 12.3637 5.30794C12.5574 4.89652 12.6542 4.38848 12.6542 3.79005Z" fill="#8E8E8E"/>
<path d="M16.612 7.4781L14.5629 0.100586H15.7374L17.1774 5.81372H17.2461L18.7424 0.100586H19.9044L21.4038 5.81683H21.4725L22.9095 0.100586H24.0871L22.0317 7.47498H20.9103L19.3547 1.94886H19.2984L17.7428 7.47498H16.6152L16.612 7.4781Z" fill="#8E8E8E"/>
<path d="M25.221 7.4781V0.100586H29.8566V1.05745H26.3362V3.30468H29.613V4.25842H26.3362V6.51812H29.8972V7.47498H25.2179L25.221 7.4781Z" fill="#8E8E8E"/>
<path d="M31.4652 7.4781V0.100586H34.1016C34.6733 0.100586 35.1512 0.200324 35.5292 0.396684C35.9071 0.593043 36.1914 0.864207 36.3788 1.21329C36.5662 1.55926 36.66 1.96133 36.66 2.41327C36.66 2.8652 36.5662 3.26104 36.3757 3.60389C36.1883 3.94674 35.904 4.21167 35.5229 4.4018C35.145 4.59192 34.667 4.68543 34.0954 4.68543H32.0993V3.72856H33.9954C34.3547 3.72856 34.6514 3.67558 34.8763 3.57272C35.1043 3.46987 35.2699 3.32026 35.3761 3.1239C35.4823 2.92754 35.5354 2.69066 35.5354 2.41327C35.5354 2.13587 35.4823 1.89276 35.3761 1.69016C35.2699 1.48757 35.1012 1.32861 34.8732 1.21952C34.6452 1.11044 34.3484 1.05433 33.9798 1.05433H32.5804V7.47498H31.4652V7.4781ZM35.1137 4.14933L36.9411 7.4781H35.6697L33.8798 4.14933H35.1137Z" fill="#8E8E8E"/>
<path d="M38.1345 7.4781V0.100586H42.7701V1.05745H39.2496V3.30468H42.5264V4.25842H39.2496V6.51812H42.8107V7.47498H38.1313L38.1345 7.4781Z" fill="#8E8E8E"/>
<path d="M46.7746 7.4781H44.3818V0.100586H46.8496C47.5743 0.100586 48.1959 0.247076 48.7144 0.543174C49.233 0.839272 49.6328 1.26004 49.9108 1.8086C50.1888 2.35716 50.3263 3.01481 50.3263 3.78155C50.3263 4.54829 50.1857 5.20905 49.9046 5.76073C49.6234 6.31241 49.2205 6.73629 48.6894 7.03551C48.1584 7.33472 47.5212 7.48121 46.7684 7.48121L46.7746 7.4781ZM45.497 6.50565H46.7121C47.2744 6.50565 47.743 6.39968 48.1147 6.18773C48.4864 5.97579 48.7675 5.66722 48.9518 5.26204C49.1361 4.85685 49.2299 4.36439 49.2299 3.77843C49.2299 3.19247 49.1393 2.70936 48.955 2.30418C48.7707 1.90211 48.4958 1.59354 48.1334 1.38472C47.7711 1.17589 47.3181 1.06992 46.7809 1.06992H45.497V6.49942V6.50565Z" fill="#8E8E8E"/>
<path d="M54.5247 7.4781V0.100586H57.2329C57.7577 0.100586 58.1919 0.18474 58.5355 0.359282C58.8791 0.530707 59.1384 0.761352 59.3071 1.05433C59.4789 1.34731 59.5632 1.67458 59.5632 2.03925C59.5632 2.34781 59.507 2.60651 59.3945 2.81534C59.2821 3.02416 59.1322 3.19247 58.9416 3.32026C58.7542 3.44493 58.5449 3.53844 58.32 3.59454V3.66623C58.5668 3.67869 58.8042 3.75662 59.0384 3.90311C59.2727 4.0496 59.4664 4.25531 59.6226 4.52024C59.7756 4.78828 59.8537 5.11243 59.8537 5.49268C59.8537 5.87294 59.7663 6.20644 59.5882 6.50565C59.4102 6.80486 59.1384 7.04174 58.7698 7.21628C58.4012 7.39083 57.9295 7.4781 57.3579 7.4781H54.5247ZM55.6398 3.29221H57.133C57.3829 3.29221 57.6078 3.24546 57.8108 3.14884C58.0107 3.05221 58.17 2.91819 58.2919 2.74365C58.4137 2.56911 58.4699 2.3634 58.4699 2.12652C58.4699 1.82107 58.3637 1.56549 58.1482 1.35978C57.9326 1.15407 57.6046 1.05122 57.1642 1.05122H55.6398V3.29533V3.29221ZM55.6398 6.52435H57.2485C57.7827 6.52435 58.1669 6.4215 58.3981 6.21579C58.6292 6.01008 58.7448 5.75138 58.7448 5.44281C58.7448 5.20905 58.6855 4.99711 58.5668 4.80075C58.4481 4.60751 58.2825 4.45167 58.0638 4.33634C57.8452 4.22102 57.589 4.16492 57.2892 4.16492H55.6398V6.52747V6.52435Z" fill="#8E8E8E"/>
<path d="M60.7158 0.100586H61.9841L63.9145 3.45428H63.9926L65.9231 0.100586H67.1913L64.508 4.57946V7.47498H63.396V4.57946L60.7158 0.100586Z" fill="#8E8E8E"/>
</svg>
