<svg width="39" height="39" viewBox="0 0 39 39" fill="none" xmlns="http://www.w3.org/2000/svg">
<path d="M28.6172 1H7.38281C3.31193 1 0 4.31193 0 8.38281V29.6172C0 33.6881 3.31193 37 7.38281 37H28.6172C32.6881 37 36 33.6881 36 29.6172V8.38281C36 4.31193 32.6881 1 28.6172 1ZM21.6955 24.944L21.0435 30.1601C20.9115 31.2157 20.0142 32.0078 18.9504 32.0078H17.0497C15.9858 32.0078 15.0885 31.2157 14.9566 30.1601L14.3046 24.9439C14.0266 22.7211 15.7598 20.7578 18 20.7578C16.2553 20.7578 14.8359 19.3384 14.8359 17.5938C14.8359 15.8491 16.2553 14.4297 18 14.4297C19.7447 14.4297 21.1641 15.8491 21.1641 17.5938C21.1641 19.3384 19.7447 20.7578 18 20.7578C20.2402 20.7578 21.9734 22.7211 21.6955 24.944ZM18 12.3203C14.7045 12.3203 12.0234 15.0014 12.0234 18.2969C12.0234 19.4847 12.3732 20.5917 12.973 21.523C12.5419 22.2557 12.2764 23.0739 12.1942 23.9187C10.7837 22.4625 9.91406 20.4795 9.91406 18.2969C9.91406 13.8383 13.5414 10.2109 18 10.2109C22.4586 10.2109 26.0859 13.8383 26.0859 18.2969C26.0859 20.4795 25.2163 22.4625 23.8058 23.9188C23.7237 23.0739 23.4581 22.2558 23.0271 21.5231C23.6268 20.5917 23.9766 19.4847 23.9766 18.2969C23.9766 15.0014 21.2955 12.3203 18 12.3203ZM23.262 29.4181L23.5867 26.8209C26.3602 24.9969 28.1953 21.8574 28.1953 18.2969C28.1953 12.6752 23.6217 8.10156 18 8.10156C12.3783 8.10156 7.80469 12.6752 7.80469 18.2969C7.80469 21.8574 9.63977 24.9969 12.4133 26.8209L12.738 29.4181C8.57841 27.4419 5.69531 23.2 5.69531 18.2969C5.69531 11.5121 11.2152 5.99219 18 5.99219C24.7848 5.99219 30.3047 11.5121 30.3047 18.2969C30.3047 23.2 27.4216 27.4419 23.262 29.4181Z" fill="white"/>
</svg>
