<svg width="39" height="39" viewBox="0 0 39 39" fill="none" xmlns="http://www.w3.org/2000/svg">
<path d="M18 37C27.936 37 36 28.936 36 19C36 9.064 27.936 1 18 1C8.064 1 0 9.064 0 19C0 28.936 8.064 37 18 37ZM25.308 27.484C24.0975 27.484 20.274 23.2435 9.528 25.4455C9.2445 25.519 8.874 25.6345 8.664 25.6345C7.2915 25.6345 7.029 23.581 8.505 23.2675C14.4495 21.955 20.5245 22.0705 25.7055 25.1695C26.9415 25.9585 26.4165 27.484 25.308 27.484ZM27.2625 22.7245C27.093 22.6795 27.1425 22.828 26.367 22.42C21.8295 19.735 15.0675 18.652 9.0495 20.2855C8.7015 20.38 8.5125 20.4745 8.1855 20.4745C6.579 20.4745 6.153 18.058 7.9035 17.5645C14.9775 15.577 22.566 16.7365 27.849 19.879C28.437 20.227 28.6695 20.6785 28.6695 21.3085C28.662 22.0915 28.053 22.7245 27.2625 22.7245ZM6.822 11.497C13.6065 9.511 23.874 10.138 30.258 13.864C31.8945 14.8075 31.251 17.194 29.511 17.194L29.5095 17.1925C29.1315 17.1925 28.899 17.098 28.572 16.909C23.4075 13.825 14.166 13.0855 8.187 14.755C7.9245 14.827 7.5975 14.9425 7.2495 14.9425C6.291 14.9425 5.559 14.194 5.559 13.2295C5.559 12.244 6.1695 11.686 6.822 11.497Z" fill="white"/>
</svg>
