<svg width="32" height="32" viewBox="0 0 32 32" fill="none" xmlns="http://www.w3.org/2000/svg">
<path d="M32 16C32 24.8367 24.8367 32 16 32C7.16327 32 0 24.8367 0 16C0 7.16328 7.16327 0 16 0C24.8367 0 32 7.16328 32 16Z" fill="black"/>
<g clip-path="url(#clip0_1337_3784)">
<path d="M16.6895 15.5718L22.5178 8.79688H21.1367L16.076 14.6794L12.034 8.79688H7.37207L13.4843 17.6923L7.37207 24.7969H8.75327L14.0975 18.5847L18.3661 24.7969H23.028L16.6892 15.5718H16.6895ZM14.7978 17.7707L14.1785 16.8849L9.25093 9.83661H11.3724L15.3489 15.5248L15.9682 16.4106L21.1373 23.8044H19.0159L14.7978 17.7711V17.7707Z" fill="white"/>
</g>
<defs>
<clipPath id="clip0_1337_3784">
<rect width="16" height="16" fill="white" transform="translate(7.2002 8.79688)"/>
</clipPath>
</defs>
</svg>
