<svg width="39" height="39" viewBox="0 0 39 39" fill="none" xmlns="http://www.w3.org/2000/svg">
<path d="M18 1C27.9411 1 36 9.05888 36 19C36 28.9411 27.9411 37 18 37C8.05888 37 0 28.9411 0 19C0 9.05888 8.05888 1 18 1ZM12.1104 12.2285C11.6396 12.2285 11.1732 12.3217 10.7383 12.502C10.3034 12.6822 9.90795 12.9463 9.5752 13.2793C9.24254 13.6122 8.97873 14.0075 8.79883 14.4424C8.61889 14.8774 8.52606 15.3437 8.52637 15.8145V22.1855C8.52606 22.6563 8.61889 23.1226 8.79883 23.5576C8.97873 23.9925 9.24254 24.3878 9.5752 24.7207C9.90795 25.0537 10.3034 25.3178 10.7383 25.498C11.1732 25.6783 11.6396 25.7715 12.1104 25.7715H23.8906C24.3614 25.7715 24.8278 25.6783 25.2627 25.498C25.6975 25.3178 26.0931 25.0536 26.4258 24.7207C26.7584 24.3878 27.0223 23.9925 27.2021 23.5576C27.3821 23.1226 27.4739 22.6563 27.4736 22.1855V15.8145C27.4739 15.3437 27.3821 14.8774 27.2021 14.4424C27.0223 14.0075 26.7584 13.6122 26.4258 13.2793C26.0931 12.9464 25.6975 12.6822 25.2627 12.502C24.8278 12.3217 24.3614 12.2285 23.8906 12.2285H12.1104ZM20.4971 19L15.5039 21.9033V16.0967L20.4971 19Z" fill="white"/>
</svg>
